<?xml version="1.0" encoding="utf-8"?>
<!-- Generator: Adobe Illustrator 21.0.0, SVG Export Plug-In . SVG Version: 6.00 Build 0)  -->
<svg version="1.1" id="Layer_1" xmlns="http://www.w3.org/2000/svg" xmlns:xlink="http://www.w3.org/1999/xlink" x="0px" y="0px"
	 viewBox="0 0 400 379" style="enable-background:new 0 0 400 379;" xml:space="preserve">
<style type="text/css">
	.st0{fill:#E5F3F9;}
	.st1{fill:#BEE1F4;}
	.st2{fill:#0669BF;}
	.st3{fill:#2EB2E7;}
	.st4{fill:#4B9B2D;}
	.st5{fill:#9ADB82;}
	.st6{fill:#64BB46;}
	.st7{fill:#F9B028;}
	.st8{fill:#C64453;}
	.st9{fill:#83BDF0;}
	.st10{fill:#FFFFFF;}
	.st11{fill:#3885CA;}
	.st12{fill:#F4F7FF;}
	.st13{fill:#BBCEE1;}
	.st14{fill:#FFFBF0;}
	.st15{fill:#B8DFF8;}
	.st16{fill:#06325B;}
	.st17{fill:#0569BD;}
	.st18{fill:#A7BCCE;}
	.st19{fill:#E2F7E8;}
	.st20{fill:#F4C5A2;}
	.st21{fill:#E6E7E8;}
	.st22{fill:#2A80C7;}
	.st23{fill:#0B3B56;}
	.st24{fill:#FED4BD;}
	.st25{fill:#4190D7;}
	.st26{fill:#072944;}
	.st27{fill:#07304B;}
	.st28{fill:#1371C0;}
</style>
<title>banner</title>
<g>
	<g id="Layer_2">
		<g id="Layer_1-2">
			<path class="st0" d="M283.4,156.7c2.9,2.8,6.9,4.2,10.9,4.1c4.7-0.3,9.1-2.1,12.6-5.2l0.3-0.3c-0.9,0-1.7-0.1-2.6-0.2
				c-3.9-0.3-8-0.8-11.4-2.6c6,1,12.2,0.4,18-1.5c2.1-2.7,3.8-5.7,4.9-8.9c-0.7,0.4-1.5,0.8-2.3,1.2c-5.1,2.4-11,2.4-16.7,1.6
				c7.2-1.7,14-4.5,20.4-8.3c0.5-2.6,0.6-5.3,0.4-8c-0.7,0.7-1.4,1.5-2,2.3c-1.1,1.6-2,3.4-3.6,4.6c-2.1,1.7-4.9,1.9-7.5,2
				c-1.3,0-2.7,0-4.1,0c1.6-0.6,3.2-1.2,4.8-1.8c1.4-0.6,2.8-1.2,4.1-2c3.2-2.1,5.9-4.9,7.9-8.1c-0.3-1.7-0.7-3.3-1.3-4.9
				c-3.5,3.3-7.6,5.9-12,7.8c4-3,7.7-6.5,10.9-10.3c-0.7-1.4-1.4-2.7-2.3-4c-3,3.6-6.8,6.5-11.1,8.3c3.7-3.1,6.7-6.8,9-11
				c-0.7-0.9-1.5-1.7-2.4-2.5c-0.7,0.9-1.5,1.7-2.4,2.4c-0.8,0.6-1.6,1.2-2.4,1.6c1.3-1.7,2.3-3.5,3.2-5.5c-1.1-1-2.3-1.9-3.5-2.8
				L283.4,156.7z"/>
			<path class="st0" d="M283.4,156.7c-2.6,0.4-5.3,0.2-7.7-0.8c-2.2-1-4.1-2.4-5.8-4.1c-3.1-3.5-4.4-8.2-4.8-12.9
				c1.6,1.5,3.5,2.9,5.5,3.9c2.1,1,4.3,1.9,6.5,2.6c-2.1-2.3-4.3-4.5-6.7-6.6c-0.9-0.7-1.8-1.3-2.6-2c-1.1-1-2.1-2.1-2.8-3.4
				c0.2-3.7,1.1-7.3,2.5-10.7c0.6,1.7,1.3,3.3,2.1,4.8c0.8,1.8,1.9,3.5,3.2,4.9c1.1,1,2.3,1.9,3.7,2.5c-0.8-0.8-1.5-1.7-2.1-2.6
				c-2.8-4.1-3.5-9.2-4.2-14.2c1.1-1.5,2.4-2.8,3.8-4.1c0.6,6.2,3.5,12,8,16.3c-0.4-0.8-0.8-1.6-1.1-2.4c-1.2-2.5-2.2-5.1-3-7.7
				c-0.4-1.6-0.7-3.3-0.9-5c-0.1-0.8-0.2-1.7-0.2-2.5c0-0.3,0-0.7,0.1-1c1.5-1.1,3.1-2,4.8-2.8c-0.4,2.2-0.4,4.4,0,6.5
				c0.3,1.3,0.7,2.6,1.3,3.8c1.1,2.6,2.5,5,4.2,7.2c-2.9-6-3.5-12.8-1.6-19.2c1.2-0.4,2.5-0.8,3.8-1.1c-0.5,2.6-0.5,5.2,0.1,7.8
				c0.2-2.9,1-5.7,2.4-8.2c1.4-0.2,2.9-0.3,4.4-0.4c-0.3,1.6-0.3,3.3-0.1,4.9c0.3-1.8,1-3.4,1.9-5c1.8-0.1,3.7-0.2,5.6-0.4
				L283.4,156.7z"/>
			<path class="st1" d="M289.7,148.7c1,0.1,2.1,0.2,3.1,0.2c2.1,0.1,4.1,0.1,6.2,0.1s4.1-0.2,6.2-0.4c2.1-0.2,4.1-0.5,6.1-1
				c-2,0.4-4.1,0.7-6.1,0.9c-2.1,0.2-4.1,0.2-6.2,0.2s-4.1-0.1-6.2-0.3c-1-0.1-2-0.2-3.1-0.3l-2.3-0.3l2.2-6.1
				c1.4,0.1,2.7,0.2,4.1,0.1c1.5,0,3-0.2,4.5-0.4c3-0.4,6-1,8.9-1.9c-2.9,0.8-5.9,1.3-8.9,1.6c-1.5,0.1-3,0.2-4.5,0.2
				c-1.3,0-2.6-0.1-3.9-0.2l2.1-5.8c1.8,0,3.7-0.2,5.4-0.6c1.9-0.4,3.8-1,5.6-1.7c1.8-0.7,3.6-1.6,5.3-2.5c1.7-0.9,3.3-2,4.9-3.2
				c-1.6,1.2-3.2,2.2-4.9,3.1c-1.7,0.9-3.5,1.7-5.3,2.4c-1.8,0.7-3.7,1.2-5.6,1.6c-1.7,0.3-3.4,0.5-5.2,0.5l2.2-6.1
				c1.5-0.3,3.1-0.7,4.5-1.3c1.5-0.6,3-1.3,4.5-2.1c1.4-0.8,2.8-1.7,4.1-2.7c1.3-1,2.6-2,3.7-3.2c-1.2,1.1-2.5,2.2-3.8,3.1
				c-1.3,0.9-2.7,1.8-4.2,2.6c-1.4,0.8-2.9,1.5-4.5,2c-1.4,0.5-2.8,0.9-4.2,1.1l2.3-6.4c1.9-1,3.6-2.2,5.3-3.5
				c1.7-1.3,3.2-2.8,4.6-4.5c-1.4,1.6-3,3.1-4.7,4.4c-1.6,1.2-3.2,2.3-5,3.2l4.1-11.2l-5.9,14.7c-0.6-1.1-1.1-2.2-1.5-3.3
				c-0.3-0.6-0.4-1.3-0.6-2s-0.3-1.3-0.4-2c-0.2-1.4-0.3-2.7-0.3-4.1c0-1.4,0.1-2.8,0.3-4.1c-0.3,1.4-0.4,2.7-0.4,4.1
				c0,1.4,0.1,2.8,0.3,4.1c0.1,0.7,0.2,1.4,0.4,2s0.3,1.3,0.6,2c0.4,1.3,0.9,2.5,1.5,3.6l-2.4,5.8c-1.1-1.4-2-2.9-2.8-4.4
				c-0.9-1.7-1.6-3.5-2.1-5.4c-0.5-1.9-0.9-3.8-1-5.7c-0.2-1.9-0.1-3.9,0.1-5.8c-0.3,1.9-0.4,3.9-0.2,5.8c0.1,2,0.4,3.9,0.9,5.8
				c0.5,1.9,1.2,3.7,2,5.5c0.8,1.7,1.8,3.3,2.9,4.8l-2.1,5.3l-0.7-0.7l-0.6-0.6l-0.5-0.6l-1.1-1.3l-1-1.3c-1.3-1.8-2.4-3.7-3.4-5.6
				c-1-2-1.8-4-2.5-6.1c-0.7-2.1-1.2-4.2-1.6-6.4c0.3,2.2,0.8,4.3,1.4,6.4c0.6,2.1,1.4,4.2,2.4,6.2c0.9,2,2,4,3.3,5.8l1,1.4l1,1.3
				l0.5,0.6l0.6,0.6l0.9,0.9l-1.3,3.2c-1.5-0.9-3-2-4.3-3.1c-1.5-1.3-2.9-2.7-4.2-4.2c-1.3-1.5-2.5-3.1-3.6-4.8
				c-1.1-1.7-2.1-3.4-3-5.2c0.8,1.8,1.8,3.6,2.9,5.3c1.1,1.7,2.2,3.3,3.5,4.9c1.3,1.6,2.6,3,4.1,4.4c1.4,1.3,2.8,2.4,4.4,3.4
				l-1.5,3.7c-0.7-0.3-1.4-0.6-2.1-0.9c-0.9-0.4-1.7-0.8-2.6-1.3c-1.7-0.9-3.4-1.9-5-3c-1.6-1.1-3.2-2.2-4.7-3.5
				c-1.5-1.2-2.9-2.6-4.2-4c1.3,1.5,2.6,2.9,4.1,4.1c1.5,1.3,3,2.5,4.6,3.6c1.6,1.1,3.2,2.2,4.9,3.1c0.8,0.5,1.7,0.9,2.6,1.4
				c0.7,0.4,1.4,0.7,2.1,1l-3,7.5c-1.5-0.2-2.9-0.5-4.3-1c-1.6-0.6-3.1-1.4-4.5-2.4c-2.9-2-5.4-4.3-7.6-7c2.1,2.8,4.6,5.2,7.4,7.3
				c1.4,1,3,1.9,4.5,2.6c1.4,0.6,2.8,0.9,4.2,1.2l-5.3,13.3l1.9,0.7l4.9-13.4c1,0.5,2.1,1,3.2,1.4c1.3,0.5,2.7,0.8,4.1,1.1
				c1.4,0.3,2.8,0.4,4.2,0.5c1.4,0.1,2.8,0,4.2-0.1c-1.4,0.1-2.8,0.1-4.2,0c-1.4-0.1-2.8-0.3-4.2-0.6c-1.4-0.3-2.7-0.7-4-1.2
				c-1.1-0.4-2.1-0.9-3.1-1.5l1.9-5.2L289.7,148.7z"/>
			<path class="st0" d="M52.3,231.6c2.7-3,4.1-7,3.9-11c-0.3-4.7-2.2-9.1-5.4-12.5l-0.3-0.3c0,0.9-0.1,1.7-0.1,2.6
				c-0.3,3.9-0.6,8-2.4,11.4c0.9-6,0.2-12.2-1.8-17.9c-2.7-2.1-5.8-3.7-9-4.8c0.5,0.7,0.9,1.5,1.2,2.2c2.5,5.1,2.6,11,1.8,16.6
				c-1.9-7.1-4.8-14-8.6-20.3c-2.6-0.4-5.3-0.5-8-0.3c0.8,0.7,1.6,1.4,2.4,2c1.6,1.1,3.4,2,4.7,3.5c1.7,2,2,4.9,2.1,7.5
				c0.1,1.3,0.1,2.7,0.1,4.1c-0.6-1.6-1.2-3.2-1.9-4.7c-0.6-1.4-1.2-2.8-2-4.1c-2.2-3.1-5-5.8-8.2-7.8c-1.7,0.3-3.3,0.8-4.9,1.4
				c3.4,3.4,6.1,7.4,8,11.8c-3.1-4-6.6-7.6-10.5-10.7c-1.4,0.7-2.7,1.5-3.9,2.4c3.7,2.9,6.6,6.7,8.5,11c-3.2-3.6-7-6.6-11.3-8.9
				c-0.9,0.8-1.7,1.6-2.5,2.5c0.9,0.7,1.7,1.5,2.4,2.3c0.6,0.7,1.2,1.5,1.7,2.4c-1.7-1.2-3.6-2.3-5.5-3.1c-1,1.1-1.9,2.3-2.7,3.6
				L52.3,231.6z"/>
			<path class="st0" d="M52.3,231.6c0.5,2.6,0.2,5.3-0.7,7.7c-0.9,2.2-2.3,4.2-4.1,5.8c-3.4,3.2-8.2,4.5-12.8,5
				c1.5-1.7,2.8-3.6,3.8-5.6c1-2.1,1.8-4.3,2.5-6.6c-2.3,2.1-4.5,4.4-6.5,6.8c-0.7,0.9-1.3,1.8-2,2.6c-1,1.1-2.1,2.1-3.4,2.9
				c-3.7-0.1-7.3-0.9-10.7-2.3c1.7-0.6,3.3-1.3,4.8-2.2c1.8-0.8,3.4-2,4.8-3.3c1-1.1,1.8-2.4,2.4-3.7c-0.8,0.8-1.7,1.5-2.6,2.1
				c-4.1,2.8-9.2,3.7-14.1,4.4c-1.5-1.1-2.9-2.3-4.1-3.7c3.2-0.4,6.3-1.3,9.2-2.9c2.6-1.4,5-3.2,7-5.4c-0.8,0.4-1.6,0.8-2.4,1.2
				c-2.5,1.2-5,2.3-7.7,3.1c-1.6,0.4-3.3,0.8-5,1c-0.8,0.1-1.7,0.2-2.5,0.3c-0.3,0-0.7,0-1,0c-1.1-1.5-2.1-3.1-2.9-4.7
				c2.2,0.4,4.4,0.3,6.5-0.1c1.3-0.3,2.6-0.8,3.8-1.4c2.5-1.1,4.9-2.5,7.1-4.3c-5.9,3-12.8,3.8-19.2,2c-0.5-1.2-0.8-2.5-1.1-3.8
				c2.6,0.4,5.2,0.4,7.8-0.2c-2.9-0.1-5.7-0.9-8.3-2.2c-0.2-1.4-0.4-2.9-0.5-4.4c1.6,0.3,3.3,0.3,4.9,0.1c-1.8-0.3-3.5-0.9-5.1-1.8
				c-0.1-1.8-0.3-3.7-0.5-5.6L52.3,231.6z"/>
			<path class="st1" d="M44.1,225.4c0-1,0.1-2.1,0.2-3.1c0.1-2.1,0.1-4.1,0-6.2s-0.2-4.1-0.5-6.2c-0.2-2.1-0.6-4.1-1.1-6.1
				c0.5,2,0.8,4.1,1,6.1c0.2,2.1,0.3,4.1,0.3,6.2s0,4.1-0.2,6.2c0,1-0.2,2.1-0.2,3.1l-0.3,2.3l-6.1-2.1c0.1-1.4,0.1-2.7,0-4.1
				c-0.1-1.5-0.2-3-0.4-4.5c-0.4-3-1.1-5.9-2-8.8c0.8,2.9,1.4,5.9,1.7,8.9c0.2,1.5,0.3,3,0.3,4.5c0,1.3,0,2.6-0.2,3.9l-5.8-2
				c0-1.8-0.3-3.6-0.7-5.4c-0.4-1.9-1-3.8-1.8-5.6c-0.7-1.8-1.6-3.5-2.6-5.2c-1-1.7-2.1-3.3-3.3-4.8c1.2,1.5,2.2,3.2,3.2,4.9
				c0.9,1.7,1.7,3.4,2.4,5.2c0.7,1.8,1.3,3.7,1.7,5.6c0.3,1.7,0.5,3.4,0.5,5.2l-6.2-2.2c-0.3-1.5-0.8-3-1.4-4.5
				c-0.6-1.5-1.3-3-2.2-4.4c-0.8-1.4-1.7-2.8-2.7-4.1c-1-1.3-2.1-2.5-3.3-3.7c1.1,1.2,2.2,2.4,3.2,3.7c1,1.3,1.8,2.7,2.6,4.1
				c0.8,1.4,1.5,2.9,2,4.4c0.5,1.4,0.9,2.8,1.2,4.2l-6.4-2.2c-1-1.9-2.2-3.6-3.6-5.2c-1.3-1.7-2.9-3.2-4.5-4.5
				c1.6,1.4,3.1,3,4.4,4.7c1.2,1.6,2.3,3.2,3.3,5l-11.2-3.9l14.8,5.6c-1.1,0.6-2.2,1.1-3.3,1.5c-0.6,0.3-1.3,0.4-2,0.6
				s-1.3,0.3-2,0.4c-1.4,0.2-2.7,0.4-4.1,0.4c-1.4,0-2.8-0.1-4.1-0.3c1.4,0.2,2.7,0.4,4.1,0.4c1.4,0,2.8-0.1,4.2-0.3
				c0.7-0.1,1.4-0.3,2-0.4s1.3-0.4,2-0.6c1.2-0.4,2.4-1,3.6-1.6l5.9,2.2c-1.4,1.1-2.8,2-4.4,2.9c-1.7,0.9-3.5,1.7-5.4,2.2
				c-1.9,0.6-3.8,0.9-5.7,1.1c-1.9,0.2-3.9,0.2-5.8,0c1.9,0.3,3.9,0.3,5.8,0.1c2-0.1,3.9-0.5,5.8-1c1.9-0.5,3.7-1.2,5.5-2.1
				c1.7-0.9,3.2-1.9,4.7-3l5.3,2l-0.7,0.7l-0.6,0.6l-0.6,0.5l-1.2,1.1l-1.3,1c-1.8,1.3-3.6,2.5-5.6,3.5c-2,1-4,1.9-6,2.6
				c-2.1,0.7-4.2,1.3-6.4,1.7c2.2-0.3,4.3-0.8,6.5-1.5c2.1-0.7,4.2-1.5,6.1-2.4c2-1,3.9-2.1,5.7-3.4l1.4-1l1.3-1.1l0.6-0.5l0.6-0.6
				l0.9-0.9l3.2,1.2c-0.9,1.5-1.9,3-3.1,4.4c-1.3,1.5-2.7,3-4.2,4.3c-1.5,1.3-3.1,2.6-4.7,3.7c-1.6,1.1-3.4,2.2-5.2,3.1
				c1.8-0.9,3.6-1.8,5.3-2.9c1.7-1.1,3.3-2.3,4.8-3.6c1.5-1.3,3-2.7,4.3-4.3c1.2-1.4,2.3-2.9,3.3-4.5l3.7,1.5
				c-0.3,0.7-0.6,1.4-0.9,2.1c-0.4,0.9-0.8,1.8-1.3,2.6c-0.9,1.7-1.8,3.4-2.9,5c-1,1.6-2.2,3.2-3.4,4.7c-1.2,1.5-2.5,3-3.9,4.3
				c1.5-1.3,2.8-2.7,4-4.2c1.3-1.5,2.4-3,3.5-4.6c1.1-1.6,2.1-3.3,3-5c0.5-0.8,0.9-1.7,1.3-2.6c0.3-0.7,0.7-1.4,1-2.1l7.6,2.9
				c-0.1,1.5-0.4,2.9-0.9,4.3c-0.6,1.6-1.4,3.1-2.3,4.6c-1.9,2.9-4.2,5.5-6.8,7.7c2.7-2.2,5.1-4.7,7.1-7.5c1-1.4,1.8-3,2.5-4.6
				c0.5-1.4,0.9-2.8,1.1-4.3l13.3,5.1l0.7-1.9l-13.5-4.7c0.5-1,0.9-2.1,1.3-3.2c0.4-1.3,0.8-2.7,1-4.1c0.2-1.4,0.4-2.8,0.4-4.2
				c0.1-1.4,0-2.8-0.2-4.2c0.1,1.4,0.1,2.8,0,4.2c-0.1,1.4-0.3,2.8-0.6,4.2c-0.3,1.4-0.7,2.7-1.2,4c-0.4,1.1-0.9,2.1-1.4,3.2
				l-5.2-1.8L44.1,225.4z"/>
			<path id="_Path_" class="st0" d="M222.9,305.8c-42.1,24.3-110.7,24.2-153.1-0.3s-42.6-64.1-0.5-88.4s110.7-24.2,153.1,0.3
				S265,281.4,222.9,305.8z"/>
			<path id="_Path_2" class="st0" d="M332.7,262.3c-42.1,24.3-110.7,24.2-153.1-0.3s-42.6-64.1-0.5-88.4s110.7-24.2,153.1,0.3
				S374.8,238,332.7,262.3z"/>
			<path class="st0" d="M155.1,66L155.1,66c-1.2-0.6-2.5-1.1-3.8-1.5l-0.2-0.1l-1.1-0.3l-0.4-0.1l-0.9-0.2l-0.4-0.1l-0.9-0.1
				l-0.4-0.1l-0.9-0.1h-0.4c-0.4,0-0.9,0-1.4,0l0,0c-6.1,0-12,2.3-16.5,6.4c-0.9,0.8-1.7,1.6-2.4,2.6c-0.2,0.3-0.5,0.6-0.7,0.9
				c-0.5,0.6-0.9,1.3-1.3,2c-0.2,0.3-0.4,0.7-0.6,1c-0.3,0.5-0.5,0.9-0.7,1.4s-0.4,1-0.7,1.6c-1.1,2.8-1.6,5.7-1.6,8.6
				c0,0.4,0,0.8,0,1.2c0,0.1,0,0.2,0,0.4s0,0.5,0.1,0.8s0,0.3,0,0.4s0.1,0.5,0.1,0.7s0,0.3,0.1,0.4c0,0.3,0.1,0.6,0.2,0.9l0.1,0.3
				c0.1,0.3,0.1,0.6,0.2,0.9l0.1,0.4c0.1,0.2,0.1,0.4,0.2,0.6l0.2,0.5l0.2,0.5l0.2,0.5l0.2,0.5c0.1,0.3,0.3,0.7,0.4,1l0.2,0.4
				l0.3,0.6l0.2,0.4l0.3,0.6l0.2,0.3l0.3,0.6l0.2,0.2c0.3,0.5,0.6,0.9,0.9,1.4l0,0c8.1,10.8,23.5,13,34.3,4.9s13-23.5,4.9-34.3
				C161.4,70.2,158.5,67.7,155.1,66z"/>
			<path class="st0" d="M82.6,58L82.6,58c-1.7-0.8-3.4-1.5-5.2-2l-0.3-0.1c-0.5-0.1-0.9-0.3-1.4-0.4l-0.5-0.1L74,55.2l-0.6-0.1
				l-1.2-0.2l-0.6-0.1l-1.3-0.1h-0.6c-0.6,0-1.2,0-1.9,0c-18.4,0-33.4,14.9-33.4,33.4c0,0.5,0,1.1,0,1.6c0,0.2,0,0.3,0,0.5
				c0,0.4,0,0.7,0.1,1.1c0,0.2,0,0.4,0.1,0.6c0,0.3,0.1,0.7,0.1,1c0,0.2,0,0.4,0.1,0.5c0.1,0.4,0.1,0.8,0.2,1.2l0.1,0.4
				c0.1,0.4,0.2,0.9,0.3,1.3c0,0.2,0.1,0.4,0.2,0.6s0.2,0.6,0.2,0.8l0.2,0.7c0.1,0.3,0.2,0.5,0.3,0.7s0.2,0.5,0.3,0.7
				s0.2,0.5,0.3,0.7c0.2,0.4,0.4,0.9,0.6,1.3l0.3,0.5c0.1,0.3,0.3,0.5,0.4,0.8l0.3,0.5l0.4,0.8l0.3,0.4c0.2,0.3,0.3,0.5,0.5,0.8
				l0.2,0.3c9.9,15.5,30.6,20.1,46.1,10.1s20.1-30.6,10.1-46.1C92.6,64.8,88,60.7,82.6,58z"/>
			<path class="st0" d="M122.8,1.8l-0.4-0.1c-0.6-0.2-1.2-0.3-1.8-0.5L120,1.1c-0.5-0.1-1.1-0.2-1.6-0.3l-0.8-0.1
				c-0.5-0.1-1-0.2-1.6-0.2l-0.8-0.1c-0.6-0.1-1.1-0.1-1.7-0.2l-0.7,0C112.1,0,111.3,0,110.5,0l0,0c-7.8,0-15.4,2.1-22.1,6.2
				c-0.6,0.4-1.2,0.7-1.7,1.1c-11.8,7.9-18.8,21.2-18.8,35.4c0,0.7,0,1.3,0.1,2c0,0.2,0,0.4,0,0.6c0,0.5,0.1,0.9,0.1,1.4
				c0,0.2,0,0.5,0.1,0.7c0,0.4,0.1,0.9,0.2,1.3c0,0.2,0.1,0.5,0.1,0.7c0.1,0.5,0.2,1,0.3,1.6l0.1,0.5c0.1,0.6,0.2,1.1,0.4,1.7
				c0.1,0.3,0.1,0.5,0.2,0.8s0.2,0.7,0.3,1s0.2,0.6,0.3,0.9s0.2,0.6,0.3,0.9s0.2,0.6,0.3,0.9s0.2,0.6,0.3,0.9
				c0.2,0.6,0.5,1.1,0.7,1.7c0.1,0.2,0.2,0.5,0.3,0.7s0.3,0.7,0.5,1l0.3,0.6c0.2,0.3,0.4,0.7,0.5,1l0.3,0.6c0.2,0.3,0.4,0.7,0.6,1
				l0.3,0.4c12.6,19.9,39,25.7,58.8,13.1s25.7-39,13.1-58.8C140.9,11.1,132.6,4.8,122.8,1.8z"/>
			<polygon class="st1" points="144.3,90.3 112.3,107.6 110.5,54.9 108.3,118.1 69.6,88 108.1,123.6 106.5,170 114.5,170 
				112.5,112.6 			"/>
			<path id="_Path_3" class="st0" d="M316,334.5c-42.1,24.3-110.7,24.2-153.1-0.3s-42.6-64.1-0.5-88.4s110.7-24.2,153.1,0.3
				S358.2,310.2,316,334.5z"/>
			<path id="_Path_4" class="st0" d="M359.6,330.6c-24.1,13.9-63.2,13.8-87.4-0.2s-24.3-36.6-0.3-50.5s63.2-13.8,87.4,0.2
				S383.7,316.7,359.6,330.6z"/>
			<path class="st0" d="M367,266c-1.1,1.8-2.1,3.5-3.3,5.2c-0.3,0.5-0.8,0.8-0.8,1.3c0,0.6,1,1.5,1.4,2c0.6,0.9,1.3,1.8,2.1,2.5
				c-0.9-0.5-2.8-1.8-4-1.8c0.2,0.9,0.5,1.7,0.9,2.5c-0.7-0.6-1.5-1-2.4-1.1c0,0.9-0.2,1.8-0.5,2.6c-0.8,4-1.4,8.8,0.4,12.5
				c1.9,4.1,7.4,3.5,11.1,2.6c1.9-0.4,3.7-1.2,5.3-2.3c0.6-0.4,2.5-2.4,3.3-1.8c-0.3-0.8-0.5-1.6-0.6-2.4c0.5,0.4,1.3,0.3,1.7,0.8
				c0.9-0.7,1.4-1.8,2.5-2.3c-0.8-0.9-1-2.3-1.8-3.3c1.1,0.1,2.1,0.4,3.1,0.8c0.3-0.6,0.7-1.3,1.2-1.8c1.8-2.5,3.3-5.1,4.6-7.8
				c0.8-1.6,1.8-3.2,2.8-4.7c-0.8-0.8-1.5-1.6-2.2-2.5c-0.9-1-1.9-2-2.8-3c0.5,0,1,0.2,1.5,0.4c1.7,0.5,3.5,0.9,5.2,1.3
				c0.1-0.7,3.3-6.8,3-7c-1.1-0.6-2.2-1.3-3.3-2.1c1.1,0.1,2.3,0.1,3.4,0c-0.5-1.2-2.9-2.4-3.9-3.3c0.9-0.3,1.8,0.2,2.7,0.3
				c0.6,0.1,1.3-0.1,1.8,0.2c0.2-1.8,0.3-3.7,0.3-5.5c0-1.2,0.5-3.3,0-4.3c-0.3-0.8-1.6-1.2-1.9-1.9c0.5-0.2,1-0.2,1.6-0.1
				c0-0.4-0.3-6.5-0.7-6.4c-3.7,0.5-7.1,1.2-10.4,3c-0.6,0.4-1.4,0.6-1.5,1.2c-0.4,1.2,0.6,3,0.7,4.2c-1.2-1.1-2.5-2.1-3.8-2.9
				c-1.4,1.1-2.6,2.4-3.6,3.8c-0.9,1.3-2,2.6-2.8,3.9c-0.4,0.6-0.8,1.2-1.1,1.9c-0.3,1.4,2.5,4.4,3.5,5.5c-1.5-0.1-3-1.5-4.6-1.8
				s-1.7,1.6-2.7,2.2c0.7,0.1,1.5,1.2,1.8,1.7c-0.8,0-1.5-0.6-2.2-0.3c0.6,1.4,1.4,2.8,2.3,4c-0.9,0-1.8-0.7-2.8-0.9
				c-0.5-0.1-0.9-0.1-1.4-0.2c-0.8,1.7-1.8,3.4-2.9,4.9L367,266z"/>
			<path class="st1" d="M396,240.1c-2.1,1.9-3.2,5.5-4.4,8c-1.3,2.8-2.5,5.6-3.7,8.3c-2.3,5.2-5,10.1-8.1,14.8
				c-6.5,9.5-12.5,19.8-20.5,28.2c-0.5,0.6-1.6-0.3-1.1-0.9c7.4-9.3,14.7-18.6,21.4-28.4c3.3-5.1,6.2-10.4,8.6-16
				c2.3-4.9,4.4-10.1,7.3-14.7C395.8,239.1,396.5,239.6,396,240.1L396,240.1z"/>
			<path id="_Path_5" class="st0" d="M196,368.6c-24.1,13.9-63.2,13.8-87.4-0.2s-24.3-36.6-0.3-50.5s63.2-13.8,87.4,0.2
				S220,354.7,196,368.6z"/>
			<path id="_Path_6" class="st0" d="M321.9,360.4c-5.3,3.1-14,3-19.3,0s-5.4-8.1-0.1-11.1s14-3,19.3,0S327.2,357.4,321.9,360.4z"/>
			<path id="_Path_7" class="st0" d="M374.4,247.1c-2.7,1.4-5.8,1.4-8.5,0c-2.4-1.4-2.4-3.5,0-4.9c2.7-1.4,5.8-1.4,8.5,0
				C376.7,243.6,376.7,245.8,374.4,247.1z"/>
			<path class="st0" d="M76.1,306.7c2,0.1,4.1,0.2,6.2,0.2c0.6,0,1.1-0.2,1.5,0.1s0.7,1.7,0.9,2.3c0.5,1,0.8,2.1,0.9,3.1
				c0.1-1,0.1-3.3,0.8-4.3c0.6,0.7,1.1,1.4,1.6,2.2c-0.1-0.9,0-1.8,0.4-2.6c0.7,0.5,1.6,0.9,2.4,1.1c3.8,1.5,8,3.8,10.1,7.4
				c2.3,3.9-1.3,8.1-4.2,10.6c-1.4,1.3-3.1,2.4-4.9,3.1c-0.7,0.2-3.4,0.7-3.4,1.7c-0.5-0.7-1-1.3-1.6-1.9c0,0.6-0.5,1.2-0.3,1.8
				c-1,0.4-2.3,0.2-3.3,0.7c-0.3-1.1-1.3-2.2-1.7-3.3c-0.5,0.9-0.9,2-1.1,3c-0.7-0.1-1.4-0.1-2.2,0c-3,0.1-6.1-0.1-9.1-0.6
				c-1.8-0.2-3.6-0.3-5.5-0.4c-0.2-1.1-0.5-2.2-0.8-3.2c-0.3-1.3-0.5-2.7-0.8-4c-0.3,0.5-0.4,1-0.5,1.5c-0.6,1.7-1.2,3.4-1.9,5.1
				c-0.6-0.3-7.5-1.1-7.5-1.5c0.2-1.3,0.2-2.6,0.1-3.9c-0.5,1-1.2,2-1.9,2.8c-0.7-1.1-0.3-3.8-0.6-5.1c-0.7,0.6-0.9,1.6-1.3,2.3
				c-0.3,0.5-0.8,1-0.8,1.6c-1.6-0.8-3.2-1.8-4.7-2.8c-1-0.6-2.9-1.5-3.6-2.5c-0.4-0.7-0.1-2-0.5-2.6c-0.4,0.3-0.8,0.7-1,1.2
				c-0.3-0.3-5.2-3.9-4.9-4.2c2.5-2.8,5-5.3,8.4-6.9c0.6-0.3,1.2-0.8,1.8-0.6c1.2,0.4,2.2,2.2,3.1,3c-0.2-1.6-0.3-3.2-0.3-4.8
				c1.7-0.5,3.4-0.8,5.2-0.9c1.6,0,3.2-0.2,4.8-0.1c0.7,0,1.5,0,2.2,0.1c1.3,0.5,2.2,4.6,2.5,6c0.7-1.3,0.4-3.3,1.1-4.8
				s2.3-0.5,3.3-1c-0.3,0.6,0.2,1.9,0.4,2.5c0.4-0.6,0.4-1.6,1-2c0.8,1.3,1.5,2.7,1.9,4.2c0.5-0.8,0.4-1.9,0.8-2.8
				c0.2-0.4,0.4-0.8,0.6-1.2c1.9,0.3,3.8,0.4,5.7,0.4L76.1,306.7z"/>
			<path class="st1" d="M38.3,316c2.8-0.6,6.3,0.5,9.1,0.9c3,0.5,6,1.1,9,1.6c5.6,1,11.2,1.6,16.8,1.7c11.5,0,23.4,0.8,34.8-1
				c0.8-0.1,0.7-1.5-0.1-1.4c-11.8,0.9-23.6,1.6-35.5,1.7c-6-0.1-12.1-0.8-18-1.9c-5.3-0.9-10.8-2-16.2-2.3
				C37.7,315.3,37.8,316.1,38.3,316L38.3,316z"/>
			<path class="st2" d="M98.8,145.3v45.8c0,4.4-6.5,7.9-14.6,7.9s-14.6-3.5-14.6-7.9v-45.8H98.8z"/>
			<ellipse class="st3" cx="84.3" cy="145.3" rx="14.6" ry="7.9"/>
			<path class="st3" d="M84.3,153.3c-8,0-14.6-3.5-14.6-7.9v45.8c0,4.4,6.5,7.9,14.6,7.9c1.6,0,3.3-0.2,4.9-0.5v-45.8
				C87.6,153.1,85.9,153.3,84.3,153.3z"/>
			<path class="st4" d="M98.8,89.9v55.5c0,4.4-6.5,7.9-14.6,7.9s-14.6-3.5-14.6-7.9V89.9H98.8z"/>
			<ellipse class="st5" cx="84.3" cy="89.9" rx="14.6" ry="7.9"/>
			<path class="st6" d="M84.3,97.8c-8,0-14.6-3.5-14.6-7.9v55.5c0,4.4,6.5,7.9,14.6,7.9c1.6,0,3.3-0.2,4.9-0.5V97.3
				C87.6,97.6,85.9,97.8,84.3,97.8z"/>
			<path class="st2" d="M75.6,168.4v36.2c0,4.4-6.5,7.9-14.5,7.9s-14.5-3.5-14.5-7.9v-36.2H75.6z"/>
			<ellipse class="st3" cx="61" cy="168.4" rx="14.5" ry="7.9"/>
			<path class="st3" d="M61,176.3c-8,0-14.6-3.5-14.6-7.9v36.2c0,4.4,6.5,7.9,14.6,7.9c1.6,0,3.3-0.2,4.9-0.5v-36.2
				C64.3,176.1,62.6,176.3,61,176.3z"/>
			<path class="st4" d="M75.6,132.2v36.2c0,4.4-6.5,7.9-14.5,7.9s-14.5-3.5-14.5-7.9v-36.2H75.6z"/>
			<ellipse class="st5" cx="61" cy="132.2" rx="14.5" ry="7.9"/>
			<path class="st6" d="M61,140.1c-8,0-14.6-3.5-14.6-7.9v36.2c0,4.4,6.5,7.9,14.6,7.9c1.6,0,3.3-0.2,4.9-0.5v-36.2
				C64.3,139.9,62.6,140.1,61,140.1z"/>
			<path class="st7" d="M52.4,186.9V218c0,4.4-6.5,7.9-14.5,7.9s-14.6-3.6-14.6-7.9v-31.1H52.4z"/>
			<ellipse class="st3" cx="37.8" cy="186.9" rx="14.6" ry="7.9"/>
			<path class="st3" d="M37.8,194.8c-8,0-14.6-3.5-14.6-7.9V218c0,4.4,6.5,7.9,14.6,7.9c1.6,0,3.3-0.2,4.9-0.5v-31.1
				C41.1,194.6,39.4,194.8,37.8,194.8z"/>
			<path class="st8" d="M52.4,175.3v11.6c0,4.4-6.5,7.9-14.5,7.9s-14.6-3.5-14.6-7.9v-11.6H52.4z"/>
			<ellipse class="st5" cx="37.8" cy="175.3" rx="14.6" ry="7.9"/>
			<path class="st6" d="M37.8,183.2c-8,0-14.6-3.5-14.6-7.9v11.6c0,4.4,6.5,7.9,14.6,7.9c1.6,0,3.3-0.2,4.9-0.5v-11.6
				C41.1,183.1,39.4,183.2,37.8,183.2z"/>
			<path class="st2" d="M29.1,212.5v18.9c0,4.4-6.5,7.9-14.6,7.9S0,235.7,0,231.4v-18.9H29.1z"/>
			<ellipse class="st3" cx="14.6" cy="212.5" rx="14.6" ry="7.9"/>
			<path class="st3" d="M14.6,220.4c-8,0-14.6-3.5-14.6-7.9v18.9c0,4.4,6.5,7.9,14.6,7.9c1.6,0,3.3-0.2,4.9-0.5v-18.9
				C17.8,220.2,16.2,220.4,14.6,220.4z"/>
			<path class="st4" d="M29.1,193.6v18.9c0,4.4-6.5,7.9-14.6,7.9S0,216.8,0,212.5v-18.9H29.1z"/>
			<ellipse class="st5" cx="14.6" cy="193.6" rx="14.6" ry="7.9"/>
			<path class="st6" d="M14.6,201.5c-8,0-14.6-3.5-14.6-7.9v18.9c0,4.4,6.5,7.9,14.6,7.9c1.6,0,3.3-0.2,4.9-0.5V201
				C17.8,201.3,16.2,201.5,14.6,201.5z"/>
			<path class="st9" d="M10.4,149c2.2-0.6,5-1.5,5,2.2c0,2.5-1.7,5.8-5,7.8v1.9L9,161.7v-1.9c-2.8,1.3-4.8,0.8-4.9-2.1l3.7-2.2
				c0.1,0.9,0.5,1.3,1.2,1.1v-3.7c-2.2,0.6-5,1.5-5-2.2c0-3,2.1-5.9,4.9-7.8V141l1.3-0.8v1.9c2.8-1.4,4.6-0.8,4.8,2.1l-3.8,2.2
				c-0.1-0.8-0.5-1.1-1-1.1L10.4,149z M10.4,155.9c0.8-0.6,1.3-1.5,1.3-2.4c0-0.9-0.5-1-1.3-0.9L10.4,155.9 M9,149.3V146
				c-0.8,0.5-1.2,1.4-1.2,2.3C7.8,149.1,8.3,149.3,9,149.3"/>
			<path class="st9" d="M76.2,61c2.2-0.6,5-1.5,5,2.2c0,2.5-1.7,5.8-5,7.8v1.9l-1.3,0.8v-2c-2.8,1.3-4.8,0.8-4.9-2.2l3.7-2.2
				c0.1,0.9,0.5,1.3,1.2,1.1v-3.7c-2.2,0.6-5,1.5-5-2.2c0-3,2.1-5.9,4.9-7.8v-1.9l1.3-0.8v1.9c2.8-1.4,4.6-0.8,4.8,2.1l-3.8,2.2
				c-0.1-0.8-0.5-1.1-1-1.1L76.2,61z M76.2,67.9c0.8-0.6,1.3-1.5,1.3-2.4c0-0.8-0.5-1-1.3-0.9L76.2,67.9 M74.9,61.3V58
				c-0.8,0.5-1.2,1.4-1.2,2.3C73.7,61.1,74.2,61.3,74.9,61.3"/>
			<path class="st9" d="M38.3,100.7c1.7-0.4,3.9-1.2,3.9,1.7c-0.2,2.5-1.7,4.8-3.9,6.1v1.5l-1,0.6V109c-2.2,1-3.8,0.6-3.8-1.7
				l2.9-1.7c0.1,0.7,0.4,1,0.9,0.9v-2.9c-1.7,0.5-3.8,1.2-3.8-1.7c0-2.3,1.7-4.6,3.8-6v-1.5l1-0.6v1.5c2.2-1.1,3.6-0.6,3.7,1.7
				l-2.9,1.7c-0.1-0.6-0.4-0.9-0.8-0.8L38.3,100.7z M38.3,106c0.6-0.5,1-1.1,1-1.9c0-0.7-0.4-0.8-1-0.7V106 M37.3,100.9v-2.5
				c-0.6,0.4-1,1.1-1,1.8C36.3,100.8,36.7,100.9,37.3,100.9"/>
			<path class="st9" d="M15.9,56.5c1.7-0.4,3.9-1.2,3.9,1.7c-0.2,2.5-1.7,4.8-3.9,6.1v1.5l-1,0.6v-1.5c-2.2,1-3.8,0.6-3.8-1.7
				l2.9-1.7c0.1,0.7,0.4,1,0.9,0.9v-2.9c-1.7,0.5-3.9,1.2-3.9-1.7c0-2.3,1.7-4.6,3.8-6v-1.5l1-0.6v1.5c2.2-1,3.6-0.6,3.7,1.7
				l-2.9,1.7c-0.1-0.6-0.4-0.9-0.8-0.8L15.9,56.5z M15.9,61.8c0.6-0.5,1-1.1,1-1.9c0-0.7-0.4-0.8-1-0.7V61.8 M14.9,56.7v-2.5
				c-0.6,0.4-1,1.1-1,1.8C13.9,56.5,14.2,56.7,14.9,56.7"/>
			<path class="st10" d="M188.6,198.9l28.3-16.4c1.2-0.7,2.7-0.7,3.9,0l67.2,38.8c0.8,0.5,1.1,1.5,0.7,2.3c-0.2,0.3-0.4,0.5-0.7,0.7
				l-27.7,16.1c-1.4,0.8-3.2,0.8-4.6,0l-67.1-38.7c-0.7-0.4-1-1.3-0.6-2.1C188.1,199.3,188.3,199.1,188.6,198.9z"/>
			<path class="st2" d="M188.6,201.6l67.1,38.7c1.4,0.8,3.2,0.8,4.6,0l27.7-16.1c0.5-0.3,0.9-0.9,0.9-1.5v3.5l0,0
				c0,0.6-0.3,1.1-0.8,1.4l-27.7,16.1c-1.4,0.8-3.2,0.8-4.6,0L188.6,205c-0.5-0.3-0.8-0.8-0.8-1.3l0,0v-3.4
				C187.8,200.8,188.1,201.3,188.6,201.6z"/>
			<path class="st11" d="M188.6,201.6l67.1,38.7c0.6,0.4,1.4,0.6,2.1,0.6v3.4c-0.7,0-1.5-0.2-2.1-0.6L188.6,205
				c-0.5-0.3-0.8-0.8-0.8-1.3l0,0v-3.4C187.8,200.8,188.1,201.3,188.6,201.6z"/>
			<polygon class="st3" points="155.8,48.2 314.6,140.3 314.6,257.1 155.8,164.7 			"/>
			<polygon class="st2" points="314.6,140.3 319.9,137.1 319.9,253.9 314.6,257.1 			"/>
			<polygon class="st11" points="155.8,48.2 161.3,45.1 319.9,137.1 314.6,140.3 			"/>
			<path class="st2" d="M155.8,48.2v116.5l158.8,92.5V140.3L155.8,48.2z M310.8,250.6l-151.2-88.1V54.7l151.3,87.7L310.8,250.6z"/>
			<polygon class="st2" points="335.7,78.6 395.5,113 395.5,184.5 335.7,149.9 			"/>
			<polygon class="st2" points="395.5,113 400,110.3 400,181.8 395.5,184.5 			"/>
			<polygon class="st11" points="335.7,78.6 340.3,76 400,110.3 395.5,113 			"/>
			<polygon class="st12" points="340.8,87.6 390.5,116.1 390.4,175.5 340.8,146.8 			"/>
			<polygon class="st6" points="344.4,127.9 344.4,144 353.4,149.2 353.4,133.1 			"/>
			<polygon class="st13" points="339.8,139.9 339.8,141.5 342.6,143.1 342.6,141.5 			"/>
			<polygon class="st13" points="339.8,133.9 339.8,135.5 342.6,137.1 342.6,135.6 			"/>
			<polygon class="st13" points="339.8,127.9 339.8,129.5 342.6,131.1 342.6,129.6 			"/>
			<polygon class="st13" points="339.8,122 339.8,123.5 342.6,125.2 342.6,123.6 			"/>
			<polygon class="st13" points="339.8,116 339.8,117.6 342.6,119.2 342.6,117.6 			"/>
			<polygon class="st13" points="339.8,110 339.8,111.6 342.6,113.2 342.6,111.7 			"/>
			<polygon class="st13" points="339.8,104.1 339.8,105.6 342.6,107.2 342.6,105.7 			"/>
			<polygon class="st13" points="339.8,98.1 339.8,99.6 342.6,101.3 342.6,99.7 			"/>
			<polygon class="st6" points="355.5,120.9 355.5,150.4 364.5,155.6 364.5,126.1 			"/>
			<polygon class="st6" points="366.7,131.4 366.7,156.9 375.7,162.1 375.7,136.5 			"/>
			<polygon class="st6" points="377.8,122.3 377.8,163.4 386.8,168.6 386.8,127.5 			"/>
			<polygon class="st2" points="262.6,14.6 322.4,49 322.4,120.4 262.6,85.8 			"/>
			<polygon class="st2" points="322.4,49 326.9,46.3 326.9,117.8 322.4,120.4 			"/>
			<polygon class="st11" points="262.6,14.6 267.1,11.9 326.9,46.3 322.4,49 			"/>
			<polygon class="st12" points="267.6,23.5 317.3,52.1 317.3,111.5 267.6,82.8 			"/>
			<polygon class="st13" points="266.7,75.9 266.7,77.4 269.5,79.1 269.5,77.5 			"/>
			<polygon class="st13" points="266.7,69.9 266.7,71.5 269.5,73.1 269.5,71.5 			"/>
			<polygon class="st13" points="266.7,63.9 266.7,65.5 269.5,67.1 269.5,65.6 			"/>
			<polygon class="st13" points="266.7,58 266.7,59.5 269.5,61.2 269.5,59.6 			"/>
			<polygon class="st13" points="266.7,52 266.7,53.5 269.5,55.2 269.5,53.6 			"/>
			<polygon class="st13" points="266.7,46 266.7,47.6 269.5,49.2 269.5,47.6 			"/>
			<polygon class="st13" points="266.7,40 266.7,41.6 269.5,43.2 269.5,41.7 			"/>
			<polygon class="st13" points="266.7,34 266.7,35.6 269.5,37.2 269.5,35.7 			"/>
			<polygon class="st9" points="291.1,302 196,355.9 135.4,320.8 230.5,266.9 			"/>
			<polygon class="st4" points="214.6,354.6 214.6,356.7 309.8,302.3 309.8,300.7 			"/>
			<polygon class="st14" points="309.8,300.7 214.6,354.6 154,319.5 249.1,265.6 			"/>
			<polygon class="st4" points="214.6,354.6 214.6,356.7 154,321.6 154,319.5 			"/>
			<polygon class="st15" points="248.5,271.4 285.1,292.5 283.5,293.4 246.9,272.3 			"/>
			<polygon class="st15" points="244.7,273.5 281.3,294.7 279.7,295.6 243.1,274.5 			"/>
			<polygon class="st15" points="235.8,278.6 286.2,307.7 284.6,308.6 234.2,279.5 			"/>
			<polygon class="st15" points="232.3,280.5 282.8,309.7 281.1,310.6 230.7,281.5 			"/>
			<polygon class="st15" points="228.8,282.5 279.3,311.6 277.6,312.5 227.2,283.4 			"/>
			<polygon class="st15" points="225.3,284.5 275.8,313.6 274.2,314.5 223.7,285.4 			"/>
			<polygon class="st15" points="221.8,286.5 272.3,315.6 270.7,316.5 220.2,287.4 			"/>
			<polygon class="st15" points="218.3,288.5 268.8,317.6 267.2,318.5 216.7,289.4 			"/>
			<polygon class="st15" points="214.9,290.5 265.3,319.6 263.7,320.5 213.3,291.4 			"/>
			<polygon class="st15" points="211.4,292.4 261.8,321.5 260.2,322.5 209.8,293.3 			"/>
			<polygon class="st15" points="207.9,294.4 258.3,323.5 256.7,324.4 206.3,295.3 			"/>
			<polygon class="st15" points="204.4,296.4 254.8,325.5 253.2,326.4 202.8,297.3 			"/>
			<polygon class="st15" points="200.9,298.4 251.3,327.5 249.7,328.4 199.3,299.3 			"/>
			<polygon class="st15" points="197.4,300.4 247.8,329.5 246.2,330.4 195.8,301.3 			"/>
			<polygon class="st15" points="193.9,302.3 244.3,331.5 242.7,332.4 192.3,303.3 			"/>
			<polygon class="st15" points="190.4,304.3 240.9,333.4 239.3,334.3 188.8,305.2 			"/>
			<polygon class="st15" points="186.9,306.3 237.4,335.4 235.8,336.3 185.3,307.2 			"/>
			<path class="st5" d="M227.7,327.3c-4.6-2.7-12.2-2.7-16.8,0c-1.3,0.7-2.3,1.7-3,3l-16.5,3.2l2.6,0.6l4.3,1l-2.3,2.3l-1.5,1.5
				l15-2.9c0.5,0.4,1,0.7,1.5,1c0.6,0.3,1.2,0.6,1.8,0.9l-4.9,8.7l2.5-0.9l4-1.4l1.8,2.5l1.1,1.5l5.4-9.5c1.8-0.3,3.6-0.9,5.2-1.8
				C232.4,334.4,232.4,330,227.7,327.3z"/>
			<ellipse class="st4" cx="219.4" cy="331.9" rx="7.6" ry="4.3"/>
			<path class="st16" d="M214,264.3v3.1c0,4.2-6.3,7.6-14.1,7.6s-14.1-3.4-14.1-7.6v-3.1H214z"/>
			<path class="st3" d="M205.7,274.4c1.2-0.3,2.3-0.7,3.4-1.2v-6.7h-3.4V274.4z"/>
			<path class="st3" d="M210.7,272.3c1-0.6,1.8-1.4,2.4-2.4v-5.3h-2.4V272.3z"/>
			<ellipse class="st3" cx="199.9" cy="264.3" rx="14.1" ry="7.6"/>
			<ellipse class="st3" cx="199.9" cy="264.2" rx="10.8" ry="5.7"/>
			<path class="st16" d="M204.7,261.9l1-0.6l-0.8-0.5l-1,0.6c-1.7-1-3.7-1.1-5.5-0.2c-1.9,1.1-0.6,2.3,0.3,3.2l-1.9,1.1
				c-0.3-0.3-0.2-0.6,0.2-1l-2.2-1.3c-1.5,1-1.2,2.2,0.4,3.2l-1,0.6l0.8,0.5l1-0.6c1.7,1,3.8,1.1,5.6,0.2c1.9-1.1,0.6-2.3-0.4-3.3
				l1.9-1.1c0.2,0.3,0.2,0.6-0.2,0.9l2.2,1.3C206.5,264,206.3,262.9,204.7,261.9z M199.2,266c-0.5,0.3-1.1,0.3-1.7,0l1.7-1
				C199.6,265.4,199.7,265.7,199.2,266z M200.6,263.4c-0.3-0.4-0.3-0.7,0.1-0.9c0.5-0.3,1.1-0.3,1.6,0L200.6,263.4z"/>
			<path class="st16" d="M214,260.3v3.1c0,4.2-6.3,7.6-14.1,7.6s-14.1-3.4-14.1-7.6v-3.1H214z"/>
			<path class="st3" d="M205.7,270.4c1.2-0.3,2.3-0.7,3.4-1.2v-6.7h-3.4V270.4z"/>
			<path class="st3" d="M210.7,268.3c1-0.6,1.8-1.4,2.4-2.4v-5.3h-2.4V268.3z"/>
			<ellipse class="st3" cx="199.9" cy="260.3" rx="14.1" ry="7.6"/>
			<ellipse class="st3" cx="199.9" cy="260.2" rx="10.8" ry="5.7"/>
			<path class="st16" d="M204.7,257.8l1-0.6l-0.8-0.5l-1,0.6c-1.7-1-3.7-1.1-5.5-0.2c-1.9,1.1-0.6,2.3,0.3,3.2l-1.9,1.1
				c-0.3-0.3-0.2-0.6,0.2-1l-2.2-1.3c-1.5,1-1.2,2.2,0.4,3.2l-1,0.6l0.8,0.5l1-0.6c1.7,1,3.8,1.1,5.6,0.2c1.9-1.1,0.6-2.3-0.4-3.3
				l1.9-1.1c0.2,0.3,0.2,0.6-0.2,0.9l2.2,1.4C206.5,260,206.3,258.9,204.7,257.8z M199.2,261.9c-0.5,0.3-1.1,0.3-1.7,0l1.7-1
				C199.6,261.4,199.7,261.7,199.2,261.9L199.2,261.9z M200.6,259.3c-0.3-0.4-0.3-0.7,0.1-0.9c0.5-0.3,1.1-0.3,1.6,0L200.6,259.3z"
				/>
			<path class="st16" d="M214,256.3v3.1c0,4.2-6.3,7.6-14.1,7.6s-14.1-3.4-14.1-7.6v-3.1H214z"/>
			<path class="st3" d="M205.7,266.3c1.2-0.3,2.3-0.7,3.4-1.2v-6.7h-3.4V266.3z"/>
			<path class="st3" d="M210.7,264.2c1-0.6,1.8-1.4,2.4-2.4v-5.3h-2.4V264.2z"/>
			<ellipse class="st3" cx="199.9" cy="256.3" rx="14.1" ry="7.6"/>
			<ellipse class="st3" cx="199.9" cy="256.1" rx="10.8" ry="5.7"/>
			<path class="st16" d="M204.7,253.8l1-0.6l-0.8-0.4l-1,0.6c-1.7-1-3.7-1.1-5.5-0.2c-1.9,1.1-0.6,2.3,0.3,3.2l-1.9,1.1
				c-0.3-0.3-0.2-0.6,0.2-1l-2.2-1.3c-1.5,1-1.2,2.2,0.4,3.2l-1,0.6l0.8,0.5l1-0.6c1.7,1,3.8,1.1,5.6,0.2c1.9-1.1,0.6-2.3-0.4-3.3
				l1.9-1.1c0.2,0.3,0.2,0.6-0.2,0.9l2.2,1.4C206.5,256,206.3,254.9,204.7,253.8z M199.2,257.9c-0.5,0.3-1.1,0.3-1.7,0l1.7-1
				C199.6,257.4,199.7,257.7,199.2,257.9z M200.6,255.3c-0.3-0.4-0.3-0.7,0.1-0.9c0.5-0.3,1.1-0.3,1.6-0.1L200.6,255.3z"/>
			<path class="st16" d="M214,252.2v3.1c0,4.2-6.3,7.6-14.1,7.6s-14.1-3.4-14.1-7.6v-3.1H214z"/>
			<path class="st3" d="M205.7,262.3c1.2-0.3,2.3-0.7,3.4-1.2v-6.7h-3.4V262.3z"/>
			<path class="st3" d="M210.7,260.2c1-0.6,1.8-1.4,2.4-2.4v-5.3h-2.4V260.2z"/>
			<ellipse class="st3" cx="199.9" cy="252.2" rx="14.1" ry="7.6"/>
			<ellipse class="st17" cx="199.9" cy="252.1" rx="10.8" ry="5.7"/>
			<path class="st5" d="M204.7,249.8l1-0.6l-0.8-0.4l-1,0.6c-1.7-1-3.7-1.1-5.5-0.2c-1.9,1.1-0.6,2.3,0.3,3.2l-1.9,1.1
				c-0.3-0.3-0.2-0.6,0.2-1l-2.2-1.3c-1.5,1-1.2,2.2,0.4,3.2l-1,0.6l0.8,0.4l1-0.6c1.7,1,3.8,1.1,5.6,0.2c1.9-1.1,0.6-2.3-0.4-3.3
				l1.9-1.1c0.2,0.3,0.2,0.6-0.2,0.9l2.3,1.3C206.5,252,206.3,250.9,204.7,249.8z M199.2,253.9c-0.5,0.3-1.1,0.3-1.7,0l1.7-1
				C199.6,253.3,199.7,253.7,199.2,253.9L199.2,253.9z M200.6,251.3c-0.3-0.4-0.3-0.7,0.1-0.9c0.5-0.3,1.1-0.3,1.6-0.1L200.6,251.3z
				"/>
			<path class="st16" d="M193.1,276.1v3.1c0,4.2-6.3,7.6-14.1,7.6s-14.1-3.4-14.1-7.6v-3.1H193.1z"/>
			<path class="st3" d="M184.8,286.1c1.2-0.3,2.3-0.7,3.4-1.1v-6.7h-3.4L184.8,286.1z"/>
			<path class="st3" d="M189.9,284.1c1-0.6,1.8-1.4,2.4-2.4v-5.3h-2.4V284.1z"/>
			<ellipse class="st3" cx="179.1" cy="276.1" rx="14.1" ry="7.6"/>
			<ellipse class="st3" cx="179.1" cy="276" rx="10.8" ry="5.7"/>
			<path class="st16" d="M183.9,273.6l1-0.6l-0.8-0.5l-1,0.6c-1.7-1-3.7-1.1-5.5-0.2c-1.9,1.1-0.6,2.3,0.3,3.2l-1.9,1.1
				c-0.3-0.3-0.2-0.6,0.2-1l-2.2-1.3c-1.5,1-1.2,2.2,0.4,3.2l-1,0.6l0.8,0.5l1-0.6c1.7,1,3.8,1.1,5.6,0.2c1.9-1.1,0.6-2.3-0.4-3.3
				l1.9-1.1c0.2,0.3,0.2,0.6-0.2,0.9l2.3,1.3C185.6,275.8,185.4,274.7,183.9,273.6z M178.4,277.8c-0.5,0.3-1.1,0.3-1.7,0l1.7-1
				C178.7,277.2,178.8,277.5,178.4,277.8z M179.7,275.1c-0.3-0.4-0.3-0.7,0.1-0.9c0.5-0.3,1.1-0.3,1.6,0L179.7,275.1z"/>
			<path class="st16" d="M193.1,272v3.1c0,4.2-6.3,7.6-14.1,7.6s-14.1-3.4-14.1-7.6V272H193.1z"/>
			<path class="st3" d="M184.8,282.1c1.2-0.3,2.3-0.6,3.4-1.1v-6.7h-3.4L184.8,282.1z"/>
			<path class="st3" d="M189.9,280c1-0.6,1.8-1.4,2.4-2.4v-5.2h-2.4V280z"/>
			<ellipse class="st3" cx="179.1" cy="272" rx="14.1" ry="7.6"/>
			<ellipse class="st3" cx="179.1" cy="272" rx="10.8" ry="5.7"/>
			<path class="st16" d="M183.9,269.6l1-0.6l-0.8-0.5l-1,0.6c-1.7-1-3.7-1.1-5.5-0.2c-1.9,1.1-0.6,2.3,0.3,3.2l-1.9,1.1
				c-0.3-0.3-0.2-0.6,0.2-1L174,271c-1.5,1-1.2,2.2,0.4,3.2l-1,0.6l0.8,0.5l1-0.6c1.7,1,3.8,1.1,5.6,0.2c1.9-1.1,0.6-2.3-0.4-3.3
				l1.9-1.1c0.2,0.3,0.2,0.6-0.2,0.9l2.3,1.3C185.6,271.8,185.4,270.7,183.9,269.6z M178.4,273.7c-0.5,0.3-1.1,0.3-1.7,0l1.7-1
				C178.7,273.1,178.8,273.5,178.4,273.7L178.4,273.7z M179.7,271.1c-0.3-0.4-0.3-0.7,0.1-0.9c0.5-0.3,1.1-0.3,1.6,0L179.7,271.1z"
				/>
			<path class="st16" d="M193.1,268v3.1c0,4.2-6.3,7.6-14.1,7.6s-14.1-3.4-14.1-7.6V268H193.1z"/>
			<path class="st3" d="M184.8,278.1c1.2-0.3,2.3-0.7,3.4-1.2v-6.7h-3.4V278.1z"/>
			<path class="st3" d="M189.9,276c1-0.6,1.8-1.4,2.4-2.4v-5.3h-2.4V276z"/>
			<ellipse class="st3" cx="179.1" cy="268" rx="14.1" ry="7.6"/>
			<ellipse class="st17" cx="179.1" cy="267.9" rx="10.8" ry="5.7"/>
			<path class="st5" d="M183.9,265.6l1-0.6l-0.8-0.5l-1,0.6c-1.7-1-3.7-1.1-5.5-0.2c-1.9,1.1-0.6,2.3,0.3,3.2l-1.9,1.1
				c-0.3-0.3-0.2-0.6,0.2-1L174,267c-1.5,1-1.2,2.2,0.4,3.2l-1,0.6l0.8,0.5l1-0.6c1.7,1,3.8,1.1,5.6,0.2c1.9-1.1,0.6-2.3-0.4-3.3
				l1.9-1.1c0.2,0.3,0.2,0.6-0.2,0.9l2.3,1.3C185.6,267.8,185.4,266.7,183.9,265.6z M178.4,269.7c-0.5,0.3-1.1,0.3-1.7,0l1.7-1
				C178.7,269.1,178.8,269.5,178.4,269.7z M179.7,267.1c-0.3-0.4-0.3-0.7,0.1-0.9c0.5-0.3,1.1-0.3,1.6,0L179.7,267.1z"/>
			<path class="st16" d="M172.3,287.8v3.2c0,4.2-6.3,7.6-14.1,7.6s-14.1-3.4-14.1-7.6v-3.1L172.3,287.8z"/>
			<path class="st3" d="M164,297.9c1.2-0.3,2.3-0.7,3.4-1.2v-6.7H164V297.9z"/>
			<path class="st3" d="M169,295.8c1-0.6,1.8-1.4,2.4-2.4v-5.3H169V295.8z"/>
			<ellipse class="st3" cx="158.2" cy="287.8" rx="14.1" ry="7.6"/>
			<ellipse class="st3" cx="158.2" cy="287.8" rx="10.8" ry="5.7"/>
			<path class="st16" d="M163,285.4l1-0.6l-0.8-0.5l-1,0.6c-1.7-1-3.7-1.1-5.5-0.2c-1.9,1.1-0.6,2.3,0.3,3.2l-1.9,1.1
				c-0.3-0.3-0.2-0.6,0.2-1l-2.2-1.3c-1.5,1-1.2,2.2,0.4,3.2l-1,0.6l0.8,0.5l1-0.6c1.7,1,3.8,1.1,5.6,0.2c1.9-1.1,0.6-2.3-0.4-3.3
				l1.9-1.1c0.2,0.3,0.2,0.6-0.2,0.9l2.3,1.3C164.8,287.6,164.6,286.5,163,285.4z M157.5,289.5c-0.5,0.3-1.1,0.3-1.7,0l1.7-1
				C157.9,288.9,158,289.3,157.5,289.5z M158.9,286.9c-0.3-0.4-0.3-0.7,0.1-0.9c0.5-0.3,1.1-0.3,1.6,0L158.9,286.9z"/>
			<path class="st16" d="M172.3,283.8v3.1c0,4.2-6.3,7.6-14.1,7.6s-14.1-3.4-14.1-7.6v-3.1H172.3z"/>
			<path class="st3" d="M164,293.9c1.2-0.3,2.3-0.7,3.4-1.2V286H164V293.9z"/>
			<path class="st3" d="M169,291.8c1-0.6,1.8-1.4,2.4-2.4v-5.3H169V291.8z"/>
			<ellipse class="st3" cx="158.2" cy="283.8" rx="14.1" ry="7.6"/>
			<ellipse class="st17" cx="158.2" cy="283.7" rx="10.8" ry="5.7"/>
			<path class="st5" d="M163,281.4l1-0.6l-0.8-0.5l-1,0.6c-1.7-1-3.7-1.1-5.5-0.2c-1.9,1.1-0.6,2.3,0.3,3.2l-1.9,1.1
				c-0.3-0.3-0.2-0.6,0.2-1l-2.2-1.3c-1.5,1-1.2,2.2,0.4,3.2l-1,0.6l0.8,0.5l1-0.6c1.7,1,3.8,1.1,5.6,0.2c1.9-1.1,0.6-2.3-0.4-3.3
				l1.9-1.1c0.2,0.3,0.2,0.6-0.2,0.9l2.3,1.3C164.8,283.6,164.6,282.5,163,281.4z M157.5,285.5c-0.5,0.3-1.1,0.3-1.7,0l1.7-1
				C157.9,284.9,158,285.3,157.5,285.5L157.5,285.5z M158.9,282.9c-0.3-0.4-0.3-0.7,0.1-0.9c0.5-0.3,1.1-0.3,1.6,0L158.9,282.9z"/>
			<path class="st16" d="M151.4,299.6v3.1c0,4.2-6.3,7.6-14.1,7.6s-14.1-3.4-14.1-7.6v-3.1H151.4z"/>
			<path class="st3" d="M143.1,309.7c1.2-0.3,2.3-0.7,3.4-1.2v-6.7h-3.4V309.7z"/>
			<path class="st3" d="M148.2,307.6c1-0.6,1.8-1.4,2.4-2.4V300h-2.4V307.6z"/>
			<ellipse class="st3" cx="137.4" cy="299.6" rx="14.1" ry="7.6"/>
			<ellipse class="st17" cx="137.4" cy="299.5" rx="10.8" ry="5.7"/>
			<path class="st5" d="M142.1,297.2l1-0.6l-0.8-0.5l-1,0.6c-1.7-1-3.7-1.1-5.5-0.2c-1.9,1.1-0.6,2.3,0.3,3.2l-1.9,1.1
				c-0.3-0.3-0.2-0.6,0.2-1l-2.2-1.3c-1.5,1-1.2,2.2,0.4,3.2l-1,0.6l0.8,0.5l1-0.6c1.7,1,3.8,1.1,5.6,0.2c1.9-1.1,0.6-2.3-0.4-3.3
				l1.9-1.1c0.2,0.3,0.2,0.6-0.2,0.9l2.3,1.3C143.9,299.4,143.7,298.3,142.1,297.2z M136.7,301.3c-0.5,0.3-1.1,0.3-1.7,0l1.7-1
				C137,300.7,137.1,301,136.7,301.3z M138,298.7c-0.3-0.4-0.3-0.7,0.1-0.9c0.5-0.3,1.1-0.3,1.6,0L138,298.7z"/>
			<polygon class="st13" points="353.5,241.5 335.5,231.1 335.5,252.1 353.5,262.5 			"/>
			<polygon class="st10" points="354.1,220.3 335.5,231.1 353.5,241.5 372.2,230.8 			"/>
			<polygon class="st18" points="372.2,230.8 353.5,241.5 353.5,262.5 372.2,251.7 			"/>
			<path class="st6" d="M308.6,61.3c-1.9-1.1-3.4-0.2-3.4,2c0,1.1,0.3,2.2,0.9,3.2l-13.8,13.1c-0.5-0.6-1.1-1.2-1.8-1.6
				c-0.7-0.5-1.7-0.6-2.5-0.2l-7.5-9.9c0.1-0.3,0.1-0.6,0.1-0.9c-0.1-2.4-1.4-4.7-3.4-6c-1.9-1.1-3.4-0.2-3.4,2
				c0.1,2.4,1.4,4.6,3.4,5.9c0.6,0.4,1.4,0.6,2.2,0.3l7.8,10.2c0,0.2,0,0.3,0,0.5c0.1,2.4,1.4,4.6,3.4,5.9c1.9,1.1,3.4,0.2,3.4-2
				c0-1-0.3-1.9-0.7-2.8l13.9-13.2c0.4,0.5,0.9,1,1.5,1.3c1.9,1.1,3.4,0.2,3.4-2C311.9,64.7,310.7,62.6,308.6,61.3z"/>
			<polygon class="st13" points="130,89.4 84.7,115.4 84.7,169.5 130,143.3 			"/>
			<polygon class="st18" points="84.7,115.4 81.3,113.3 81.3,167.5 84.7,169.5 			"/>
			<polygon class="st10" points="130,89.4 126.5,87.4 81.3,113.3 84.7,115.4 			"/>
			<polygon class="st12" points="126.1,96.1 88.5,117.8 88.5,162.7 126.1,141 			"/>
			<polygon class="st13" points="90,156.7 90,157.9 87.9,159.1 87.9,157.9 			"/>
			<polygon class="st13" points="90,152.2 90,153.4 87.9,154.6 87.9,153.4 			"/>
			<polygon class="st13" points="90,147.6 90,148.8 87.9,150.1 87.9,148.9 			"/>
			<polygon class="st13" points="90,143.1 90,144.3 87.9,145.5 87.9,144.4 			"/>
			<polygon class="st13" points="90,138.6 90,139.8 87.9,141 87.9,139.8 			"/>
			<polygon class="st13" points="90,134.1 90,135.3 87.9,136.5 87.9,135.3 			"/>
			<polygon class="st13" points="90,129.6 90,130.7 87.9,132 87.9,130.8 			"/>
			<polygon class="st13" points="90,125 90,126.2 87.9,127.4 87.9,126.3 			"/>
			<polygon class="st6" points="92.1,156.8 123.4,138.6 123.4,112.3 			"/>
			<polygon class="st6" points="97,116.6 97,125.6 92.1,128.4 92.1,119.5 			"/>
			<polygon class="st4" points="92.1,156.8 123.4,112.3 123.4,101.4 			"/>
			<path class="st4" d="M127.9,329.8L127.9,329.8v-2l-0.7,0.1c-0.3-0.4-0.6-0.7-1-1l-38.5-22.3c-2.1-1.2-4.6-1.2-6.7,0l-58.2,33.6
				c-0.3,0.2-0.5,0.3-0.7,0.6l-0.9,0.1v2.1l0,0c0,1.1,0.6,2.2,1.6,2.8L61.1,366c2.4,1.4,5.2,1.4,7.6,0l57.5-33.2
				C127.2,332.2,127.9,331.1,127.9,329.8z"/>
			<path class="st19" d="M126.2,324.9l-38.5-22.4c-2.1-1.2-4.6-1.2-6.7,0l-58.2,33.6c-1.5,0.9-2,2.8-1.2,4.3
				c0.3,0.5,0.7,0.9,1.2,1.2L61.1,364c2.4,1.4,5.2,1.4,7.6,0l57.5-33.2c1.6-0.9,2.2-3,1.2-4.6C127.1,325.6,126.7,325.2,126.2,324.9z
				"/>
			<path class="st4" d="M126.2,330.8L68.7,364c-1.2,0.7-2.5,1-3.8,1v2c1.3,0,2.7-0.3,3.8-1l57.5-33.2c1.1-0.6,1.7-1.8,1.7-3l0,0v-2
				l0,0C127.9,329,127.2,330.2,126.2,330.8z"/>
			<ellipse class="st3" cx="116" cy="328.1" rx="6.2" ry="3.4"/>
			<ellipse class="st6" cx="109.2" cy="332" rx="6.2" ry="3.4"/>
			<path class="st6" d="M47.2,336l-7.3-4.3c-0.4-0.2-0.9-0.2-1.3,0l-11.1,6.4c-0.3,0.2-0.4,0.6-0.2,0.8c0,0.1,0.1,0.1,0.2,0.2
				l7.3,4.2c0.4,0.3,1,0.3,1.4,0l10.9-6.3c0.3-0.2,0.4-0.6,0.2-0.9C47.3,336.1,47.2,336,47.2,336z"/>
			<polygon class="st15" points="101,315.1 43.2,348.5 45.7,349.9 103.5,316.6 			"/>
			<polygon class="st15" points="105.6,317.8 47.8,351.1 50.3,352.6 108.1,319.3 			"/>
			<polygon class="st12" points="187.7,76.1 163.5,62.1 163.5,64.5 187.7,78.5 			"/>
			<polygon class="st12" points="187.7,80.1 163.5,66.1 163.5,68.4 187.7,82.4 			"/>
			<polygon class="st12" points="306.9,235.6 282.6,221.6 282.6,223.9 306.9,237.9 			"/>
			<polygon class="st12" points="306.9,239.6 282.6,225.5 282.6,227.9 306.9,241.9 			"/>
			<polygon class="st12" points="279,219.5 254.8,205.4 254.8,207.8 279,221.8 			"/>
			<polygon class="st12" points="279,223.4 254.8,209.4 254.8,211.8 279,225.8 			"/>
			<polygon class="st12" points="251.1,203.4 226.9,189.3 226.9,191.7 251.1,205.7 			"/>
			<polygon class="st12" points="251.1,207.3 226.9,193.3 226.9,195.6 251.1,209.7 			"/>
			<polygon class="st12" points="223.3,187.2 199,173.2 199,175.6 223.3,189.6 			"/>
			<polygon class="st12" points="223.3,191.2 199,177.2 199,179.5 223.3,193.6 			"/>
			<polygon class="st12" points="187.7,84.1 163.5,70 163.5,72.4 187.7,86.4 			"/>
			<polygon class="st12" points="187.7,88 163.5,74 163.5,76.4 187.7,90.4 			"/>
			<polygon class="st12" points="187.7,92 163.5,78 163.5,80.3 187.7,94.3 			"/>
			<polygon class="st12" points="187.7,96 163.5,81.9 163.5,84.3 187.7,98.3 			"/>
			<polygon class="st12" points="187.7,99.9 163.5,85.9 163.5,88.3 187.7,102.3 			"/>
			<polygon class="st12" points="187.7,103.9 163.5,89.9 163.5,92.2 187.7,106.3 			"/>
			<polygon class="st12" points="187.7,107.9 163.5,93.8 163.5,96.2 187.7,110.2 			"/>
			<polygon class="st12" points="187.7,111.8 163.5,97.8 163.5,100.2 187.7,114.2 			"/>
			<polygon class="st12" points="187.7,115.8 163.5,101.8 163.5,104.1 187.7,118.2 			"/>
			<polygon class="st12" points="187.7,119.8 163.5,105.7 163.5,108.1 187.7,122.1 			"/>
			<polygon class="st12" points="187.7,123.7 163.5,109.7 163.5,112.1 187.7,126.1 			"/>
			<polygon class="st12" points="187.7,127.7 163.5,113.7 163.5,116 187.7,130.1 			"/>
			<polygon class="st12" points="187.7,131.7 163.5,117.6 163.5,120 187.7,134 			"/>
			<polygon class="st12" points="187.7,135.6 163.5,121.6 163.5,124 187.7,138 			"/>
			<polygon class="st12" points="187.7,139.6 163.5,125.6 163.5,127.9 187.7,141.9 			"/>
			<polygon class="st12" points="192.2,78.7 306.9,145.2 306.9,229.6 192.2,162.8 			"/>
			<polygon class="st13" points="195,158.2 195,159.1 303.2,222.1 303.2,221.2 			"/>
			<polygon class="st13" points="195,148.3 195,149.2 303.2,212.2 303.2,211.3 			"/>
			<polygon class="st13" points="195,138.4 195,139.4 303.2,202.4 303.2,201.4 			"/>
			<polygon class="st13" points="195,128.6 195,129.5 303.2,192.5 303.2,191.6 			"/>
			<polygon class="st13" points="195,118.7 195,119.6 303.2,182.6 303.2,181.7 			"/>
			<polygon class="st13" points="195,108.8 195,109.8 303.2,172.8 303.2,171.8 			"/>
			<polygon class="st13" points="195,99 195,99.9 303.2,162.9 303.2,161.9 			"/>
			<polygon class="st13" points="195,89.6 195,158.2 195.9,158.7 195.9,90.1 			"/>
			<polygon class="st13" points="205.4,95.7 205.4,164.3 206.3,164.8 206.3,96.2 			"/>
			<polygon class="st13" points="215.8,101.8 215.8,170.3 216.7,170.8 216.7,102.3 			"/>
			<polygon class="st13" points="226.2,107.9 226.2,176.4 227.1,176.9 227.1,108.4 			"/>
			<polygon class="st13" points="236.6,113.9 236.6,182.5 237.5,183 237.5,114.4 			"/>
			<polygon class="st13" points="247.1,120 247.1,188.6 247.9,189.1 247.9,120.5 			"/>
			<polygon class="st13" points="257.5,126.1 257.5,194.6 258.3,195.1 258.3,126.6 			"/>
			<polygon class="st13" points="267.9,132.2 267.9,200.7 268.7,201.2 268.7,132.7 			"/>
			<polygon class="st13" points="278.3,138.3 278.3,206.8 279.1,207.3 279.1,138.8 			"/>
			<polygon class="st13" points="288.7,144.3 288.7,212.9 289.5,213.4 289.5,144.8 			"/>
			<polygon class="st13" points="299.1,150.4 299.1,219 299.9,219.5 299.9,150.9 			"/>
			<path class="st6" d="M216.3,148.8c1.2,0.8,2,2.2,2.1,3.6c0,1.3-1,1.9-2.1,1.2c-1.2-0.8-2-2.2-2.1-3.6
				C214.2,148.6,215.1,148.1,216.3,148.8z"/>
			<path class="st3" d="M216.3,138.7c1.2,0.8,2,2.2,2.1,3.6c0,1.3-1,1.9-2.1,1.2c-1.2-0.8-2-2.2-2.1-3.6
				C214.2,138.6,215.1,138,216.3,138.7z"/>
			<path class="st3" d="M237.1,161.3c1.2,0.8,2,2.2,2.1,3.6c0,1.3-1,1.9-2.1,1.2c-1.2-0.8-2-2.2-2.1-3.6
				C235,161.2,235.9,160.6,237.1,161.3z"/>
			<path class="st3" d="M247.5,147.2c1.2,0.8,2,2.2,2.1,3.6c0,1.3-1,1.9-2.1,1.2c-1.2-0.8-2-2.2-2.1-3.6
				C245.4,147.1,246.3,146.6,247.5,147.2z"/>
			<path class="st3" d="M257.8,143.3c1.2,0.8,2,2.2,2.1,3.6c0,1.3-1,1.9-2.1,1.2c-1.2-0.8-2-2.2-2.1-3.6
				C255.7,143.2,256.6,142.6,257.8,143.3z"/>
			<path class="st3" d="M278.7,165.5c1.2,0.8,2,2.2,2.1,3.6c0,1.3-1,1.9-2.1,1.2c-1.2-0.8-2-2.2-2.1-3.6
				C276.6,165.4,277.5,164.9,278.7,165.5z"/>
			<path class="st3" d="M268.3,179.2c1.2,0.8,2,2.2,2.1,3.6c0,1.3-1,1.9-2.1,1.2c-1.2-0.8-2-2.2-2.1-3.6
				C266.2,179.1,267.1,178.6,268.3,179.2z"/>
			<path class="st3" d="M289.1,160.9c1.2,0.8,2,2.2,2.1,3.6c0,1.3-1,1.9-2.1,1.2c-1.2-0.8-2-2.2-2.1-3.6
				C287,160.8,288,160.2,289.1,160.9z"/>
			<path class="st6" d="M226.7,160.4c1.2,0.8,2,2.2,2.1,3.6c0,1.3-1,1.9-2.1,1.2c-1.2-0.8-2-2.2-2.1-3.6
				C224.6,160.3,225.5,159.8,226.7,160.4z"/>
			<path class="st6" d="M237.1,151.5c1.2,0.8,2,2.2,2.1,3.6c0,1.3-1,1.9-2.1,1.2c-1.2-0.8-2-2.2-2.1-3.6
				C235,151.3,235.9,150.8,237.1,151.5z"/>
			<path class="st6" d="M257.8,168.4c1.2,0.8,2,2.2,2.1,3.6c0,1.3-1,1.9-2.1,1.2c-1.2-0.8-2-2.2-2.1-3.6
				C255.7,168.3,256.6,167.7,257.8,168.4z"/>
			<path class="st6" d="M268.3,156.2c1.2,0.8,2,2.2,2.1,3.6c0,1.3-1,1.9-2.1,1.2c-1.2-0.8-2-2.2-2.1-3.6
				C266.2,156.1,267.1,155.6,268.3,156.2z"/>
			<path class="st6" d="M289.1,152.1c1.2,0.8,2,2.2,2.1,3.6c0,1.3-1,1.9-2.1,1.2c-1.2-0.8-2-2.2-2.1-3.6
				C287,152,288,151.4,289.1,152.1z"/>
			<polygon class="st6" points="289,154.1 268.1,158.3 257.8,170.3 237.1,153.4 226.7,162.3 216.4,150.7 205.7,154.8 206,155.6 
				216.1,151.7 226.6,163.5 237.1,154.4 257.9,171.4 268.5,159.1 289.2,154.9 			"/>
			<polygon class="st3" points="289,163.2 278.4,167.6 268.5,180.8 258.2,145.6 258.1,145.2 247.2,149.3 237,163.1 216.2,140.5 
				205.2,155.1 205.8,155.6 216.3,141.8 236.8,164 237.1,164.4 247.7,150 257.5,146.3 268.1,182.6 279,168.3 289.3,164 			"/>
			<path class="st6" d="M205.9,152.8c1.2,0.8,2,2.2,2.1,3.6c0,1.3-1,1.9-2.1,1.2c-1.2-0.8-2-2.2-2.1-3.6
				C203.8,152.6,204.7,152.1,205.9,152.8z"/>
			<path class="st20" d="M96.8,176.4c0,0-2.2,0.2-3,0.4s-3.6,0.6-4.6,1.4s1.4,0.8,2.1,1s-0.8,0.9-1.8,1.7c-1.1,0.8-1.8,2-2,3.3
				c-0.3,1.4,4.1,4.7,5.3,2.7s1.1-2,3.2-3.1c1.6-0.9,3.1-2.1,4.4-3.5L96.8,176.4z"/>
			<path class="st21" d="M96.8,175.1l-1.8,1.2c1.2,2,2.5,3.9,3.9,5.7l2-1.1L96.8,175.1z"/>
			<polygon class="st9" points="112.9,165.1 96.3,175.2 100.3,181.4 119.3,170.9 124.2,163.7 124.8,143.5 			"/>
			<path class="st16" d="M132.9,251.7l-7.4-0.4c0,0-0.7,1.4-3.3,2s-7.7,3.7-6.6,6.2s5.3,2.5,7.7,1.4c1.7-0.7,3.6-1.3,5.4-1.6l0.6,1
				l4.8-1.2l0.2-6.8L132.9,251.7z"/>
			<path class="st16" d="M137.4,254.9c-0.5,1.3-1.3,2.5-2.3,3.5c-1.2,0.9-4.6,6.1-3.5,7.9c1,1.6,2.8,2.4,4.6,2.1
				c1.4-0.3,4.7-2,5.8-4.3l1-1.9c0,0,0.4,0.8,0.6,0.8c1.3-0.6,2.5-1.4,3.7-2.2c0,0-0.3-5.3-0.5-7.6L137.4,254.9z"/>
			<path class="st17" d="M133.4,185.9h-9.9c-0.2,0.3-0.4,24.4-0.3,28.3s1.4,37.2,1.4,37.2c3,1.9,6.6,2.4,10,1.4l1.1-41.9
				L133.4,185.9z"/>
			<path class="st17" d="M145.9,183.1c0,0,0.2,12.4,0.1,16.6s1.2,21.7,1.4,22.1s0.5,32.3,0.5,32.3s-4.1,3.6-11.8,1.9
				c0,0-2.3-43.2-3.1-50s-1.8-20.6-1.8-20.6L145.9,183.1z"/>
			<path class="st22" d="M141.9,141.1l-12.4,0.4l-4.8,2c0,0-1.9,3.9-2.9,11.4s1,30.4,1,30.4c4.7,2.3,20.3,1.7,20.3,1.7
				c2.9-7.4,5.7-41.2,5.7-41.2L141.9,141.1z"/>
			<path class="st9" d="M132.7,141.4l-4.3,3.7c-1.9,10.9-1.7,32.3-1.5,41.4c1.6,0.3,3.4,0.4,5.2,0.5c0.4-22.7,8-44.3,8.5-45.8
				L132.7,141.4z"/>
			<path class="st23" d="M128.9,146.8l0.8,3.4c0,0-1.7,21-2.2,29.9l1.8,3.7l2.3-3.2l0.4-29.2l2.2-4.2
				C132.6,146.3,130.6,146.1,128.9,146.8z"/>
			<polygon class="st23" points="131.4,146.5 127.4,148.1 129,141.5 131.1,140.1 			"/>
			<polygon class="st20" points="140,138.3 130.4,139.8 131.4,146.5 140.6,141.1 			"/>
			<path class="st24" d="M142.3,132.1c0,5.2-3.8,9.4-8.4,9.4s-7.5-4.2-7.5-9.4s2.8-9.4,7.5-9.4S142.3,126.9,142.3,132.1z"/>
			<path class="st11" d="M134.6,131.4c0,0-1.3,5.3,1.5,5.3s1.7,1,2.4,2.1s2.8,0.3,4-2.3s2.6-8.5,0.6-11.3c-2.2-3.1-6.6-4.2-9.4-4
				c-3.5,0.3-7.9,3-8.3,5.5C124.7,131.2,134.6,131.4,134.6,131.4z"/>
			<polygon class="st23" points="144.2,185.2 132.1,184.9 131.9,191.8 144.9,193.6 			"/>
			<path class="st20" d="M142.3,192.1c0,0-1.6,1.5-2.1,2.1s-2.6,2.6-2.9,3.8s1.6-0.2,2.2-0.4s1.6,0.4,1.3,1.6s-1.9,3.3-2.5,4.6
				s4.8,1.4,6.4-0.3c1.5-1.5,2.5-3.6,2.6-5.8c0.2-2.2-0.7-4-0.5-5L142.3,192.1z"/>
			<polygon class="st21" points="140.9,190.8 140.3,193.3 147.8,195.6 148.6,192.8 			"/>
			<path class="st9" d="M148.9,145.9c0,0-5.3,0.4-4.6,9.4s0.6,15.1,0.6,15.1l-4.3,21.1l8,2.2c0,0,5.6-21.5,5.6-22.2s-1.4-19-1.4-19
				S152.4,147.5,148.9,145.9z"/>
			<path class="st23" d="M122.5,180.6l-0.1,8.2c0,0.6,0.4,1.2,1,1.3l3.4,0.8l0.1-5.4L122.5,180.6z"/>
			<polygon class="st23" points="140.8,139.7 131.4,146.5 135.5,150.5 141.9,141.1 			"/>
			<path class="st20" d="M91,195.5c0,0,1.5-1.6,2.1-2s2.7-2.4,3.8-2.7s-0.3,1.5-0.5,2.2s0.3,1.5,1.5,1.3s3.3-1.7,4.6-2.3
				s1.2,4.7-0.5,6.2c-1.6,1.4-3.6,2.3-5.7,2.4c-2.2,0.1-3.9-0.8-4.8-0.7L91,195.5z"/>
			<path class="st25" d="M45.2,284c0,0-0.3,0.9,3.5,1.1s7.9,0.2,8.4,2.7s-3,5.4-7.2,6c-4.4,0.4-8.9,0.2-13.3-0.6
				c-0.6-0.1-1.1-0.4-1.2-1c-0.3-1.9-0.1-3.9,0.5-5.8C37.1,283.1,45.2,284,45.2,284z"/>
			<path class="st25" d="M55.6,286.8c0,0-0.3,0.9,3.5,1.1s7.9,0.2,8.4,2.7s-2.4,4.5-6.6,5c-3.6,0.5-10.8,0.8-13.6,1
				c-0.6,0-1.1-0.4-1.2-1c-0.3-1.9-0.3-3.8-0.2-5.8C46.2,286.3,55.6,286.8,55.6,286.8z"/>
			<path class="st26" d="M36.7,224.9c0,0-0.4,30.7-0.7,34.4s-1.1,26.4-1.1,26.4s6.4,3.2,11.4,1l2.8-58.4L36.7,224.9z"/>
			<path class="st27" d="M45.7,226.9v30.7c-0.3,9-0.8,32.6-0.8,32.6c4.3,0.5,8.6-0.6,12-3.2c-0.4-4,0-26.7,0-26.7
				c1.5-11.8,2.4-30.7,2.6-34.1c0-0.4,0-0.6,0-0.6L45.7,226.9z"/>
			<path class="st9" d="M32.3,181.6c0,0-4.7,14.6-3.7,22.4c2.5,2.1,5.2,3.8,8.1,5.3L32.3,181.6z"/>
			
				<ellipse transform="matrix(9.810394e-02 -0.9952 0.9952 9.810394e-02 -121.4896 203.1852)" class="st24" cx="51.4" cy="168.6" rx="10.2" ry="8.3"/>
			<path class="st28" d="M44.3,174.2c2.1,0.4,4.3,0,6.2-1.1c1.4-1.1,2.6-2.5,3.3-4.1c0,0,2.5,1,3.3-1s3.9-2,4-3.9
				c0,0-0.9-9.3-10.8-7.6C50.3,156.5,36.2,159.4,44.3,174.2z"/>
			<path class="st22" d="M43.6,175.9c0,0,6-0.4,10.7,2.9c0.3,0.7,0.7,1.2,1.3,1.6c0.9,0.6,7.9,3.3,7.9,3.3s-4.3,29.2-2,42.5
				c0,0-10.1,7.9-25.9,0c0,0-2.3-36.2-3.3-44.6C32.3,181.6,34.9,178.3,43.6,175.9z"/>
			<path class="st9" d="M63.5,183.7l11.8,12.8l16.8-3.1c0,0,2,4.4,1.4,7.6l-20.5,5l-13.3-11.8C59.7,194.2,55.2,185,63.5,183.7z"/>
			<path class="st20" d="M375.4,180.4c0,0,0.2-2.2,0.4-2.9s0.6-3.5,1.3-4.5s0.8,1.4,1,2s1.2,1,2,0.1s1.5-3.4,2.2-4.6s3.9,3,3.5,5.2
				c-0.3,2.1-1.4,4-3,5.4c-1.6,1.4-3.6,1.8-4.2,2.5L375.4,180.4z"/>
			<path class="st25" d="M332.7,289c0,0-0.3,0.9,3.5,1.1s7.9,0.2,8.4,2.7s-3,5.4-7.2,6c-4.4,0.4-8.9,0.2-13.3-0.6
				c-0.6-0.1-1.1-0.4-1.2-1c-0.3-1.9-0.1-3.9,0.5-5.8C324.6,288.1,332.7,289,332.7,289z"/>
			<path class="st25" d="M343.1,291.9c0,0-0.3,0.9,3.5,1.1s7.9,0.2,8.4,2.7s-2.5,4.5-6.6,5c-3.6,0.5-10.8,0.8-13.6,1
				c-0.6,0-1.1-0.4-1.2-1c-0.3-1.9-0.3-3.8-0.2-5.8C333.7,291.4,343.1,291.9,343.1,291.9z"/>
			<path class="st26" d="M324.2,230c0,0-0.4,30.7-0.7,34.4s-1.1,26.4-1.1,26.4s6.4,3.2,11.4,1l2.9-58.4L324.2,230z"/>
			<path class="st27" d="M333.2,231.9v30.7c-0.3,9-0.8,32.6-0.8,32.6c4.3,0.5,8.6-0.6,12-3.2c-0.4-4,0-26.7,0-26.7
				c1.5-11.8,2.4-30.7,2.6-34.1v-0.6L333.2,231.9z"/>
			<path class="st9" d="M319.8,186.6c0,0-4.7,14.6-3.7,22.4c2.5,2.1,5.2,3.8,8.1,5.3L319.8,186.6z"/>
			<ellipse class="st24" cx="336.2" cy="172.6" rx="8.3" ry="10.2"/>
			<path class="st22" d="M331.1,181c0,0,6-0.4,10.6,2.9c0.3,0.7,0.7,1.2,1.3,1.6c0.9,0.6,7.9,3.3,7.9,3.3s-4.3,29.2-2,42.5
				c0,0-10.1,7.9-25.9,0c0,0-2.3-36.2-3.3-44.6C319.8,186.6,322.4,183.4,331.1,181z"/>
			<path class="st9" d="M350.9,188.7l11.8,2.7l12.6-12.8c0,0,4.4,1.4,5.3,5.1l-15,17.1l-18.5-1.6C347.1,199.2,342.7,190,350.9,188.7
				z"/>
			<path class="st28" d="M340.1,162.4c0,0,6.5,1.2,6.5,6.7l-6,2c0,0,0.9,4.6-2.4,5.8c0,0-1,4.1-7.1,3.8c0,0-9.2-12,2-17.7
				C335.3,162.2,337.7,162,340.1,162.4z"/>
		</g>
	</g>
</g>
</svg>
