<?xml version="1.0" standalone="no"?>
<!DOCTYPE svg PUBLIC "-//W3C//DTD SVG 20010904//EN"
 "http://www.w3.org/TR/2001/REC-SVG-20010904/DTD/svg10.dtd">
<svg version="1.0" xmlns="http://www.w3.org/2000/svg"
 width="800.000000pt" height="800.000000pt" viewBox="0 0 800.000000 800.000000"
 preserveAspectRatio="xMidYMid meet">
<metadata>
Created by potrace 1.14, written by Peter Selinger 2001-2017
</metadata>
<g transform="translate(0.000000,800.000000) scale(0.100000,-0.100000)"
fill="#000000" stroke="none">
<path d="M1499 7996 c-2 -2 -20 -7 -39 -9 -19 -3 -35 -6 -35 -7 0 -1 -9 -3
-20 -5 -37 -5 -133 -43 -191 -75 -113 -62 -221 -164 -292 -275 -31 -49 -81
-166 -97 -230 -29 -110 -26 -330 6 -413 6 -15 11 -29 11 -32 2 -26 70 -170 79
-170 5 0 9 -5 9 -11 0 -14 60 -89 110 -139 105 -104 236 -174 405 -217 11 -2
78 -6 149 -9 71 -2 131 -5 132 -7 2 -2 26 -1 54 3 27 4 50 2 50 -2 0 -5 4 -7
8 -4 7 4 116 7 172 5 8 0 33 0 55 1 22 0 122 0 223 -2 100 -2 182 -1 182 2 0
3 37 4 82 3 78 -2 140 -3 333 -3 132 -1 178 1 187 6 4 3 8 0 8 -6 0 -6 4 -9 9
-6 5 3 58 6 117 6 60 0 139 0 177 0 37 0 102 0 145 0 127 -1 175 1 184 6 4 3
8 2 8 -3 0 -7 55 -8 301 -3 30 0 84 -1 122 -2 37 -2 67 -1 67 3 0 3 25 2 55
-1 30 -3 55 -3 55 1 0 4 8 5 18 3 24 -7 372 -10 372 -4 0 6 210 3 216 -2 2 -3
26 -2 54 2 27 4 50 2 50 -2 0 -5 4 -7 8 -4 7 4 116 7 172 5 8 0 33 0 55 1 22
0 122 0 223 -2 100 -2 182 1 182 5 0 5 4 6 9 3 5 -4 71 -6 148 -5 171 0 155 0
236 -3 37 -2 67 -1 67 3 0 3 25 2 55 -1 30 -3 55 -2 55 3 0 4 5 5 10 2 20 -12
229 -5 305 10 145 29 299 110 400 210 76 76 121 139 169 240 47 98 69 194 72
310 7 239 -75 436 -254 611 -36 35 -71 64 -79 64 -7 0 -13 4 -13 9 0 19 -195
105 -290 127 -35 8 -5053 18 -5061 10z"/>
<path d="M1495 5594 c-5 -1 -44 -10 -84 -19 -41 -10 -82 -21 -90 -25 -9 -4
-29 -13 -46 -20 -16 -7 -37 -16 -45 -21 -8 -5 -26 -15 -40 -21 -14 -7 -27 -15
-30 -18 -3 -3 -23 -18 -45 -35 -92 -69 -210 -217 -244 -306 -7 -19 -17 -43
-22 -54 -5 -11 -17 -47 -26 -80 -17 -56 -18 -188 -20 -2165 -3 -2262 -5 -2153
47 -2310 12 -36 25 -67 29 -70 3 -3 13 -18 21 -35 56 -113 214 -271 318 -316
17 -7 32 -17 32 -21 0 -5 8 -8 18 -8 10 0 22 -4 28 -9 5 -6 47 -20 94 -32 109
-30 300 -32 400 -6 61 16 147 48 180 68 8 5 26 15 40 21 14 7 27 15 30 18 3 3
21 17 41 32 85 63 167 158 219 252 31 56 70 155 74 186 1 9 5 20 8 26 6 9 22
171 20 204 -1 8 -1 58 -1 110 1 52 0 102 0 110 0 8 -1 31 0 50 0 19 0 42 0 50
0 8 0 58 0 110 1 52 0 102 0 110 0 8 -1 31 0 50 0 19 0 42 0 50 0 8 0 58 0
110 1 52 0 102 0 110 0 8 -1 31 0 50 0 19 0 42 0 50 0 8 0 58 0 110 1 52 0
102 0 110 0 8 -1 31 0 50 0 19 0 42 0 50 0 8 0 58 0 110 1 52 0 102 0 110 0 8
-1 31 0 50 0 19 0 42 0 50 0 8 0 58 0 110 1 52 0 104 -1 115 -1 11 -1 27 -1
35 0 15 0 107 0 125 -1 13 0 195 0 220 0 11 0 45 0 75 0 30 0 78 0 105 1 65 0
236 0 255 0 8 0 40 0 70 1 57 1 133 0 330 0 63 0 122 0 130 0 8 0 40 0 70 0
30 0 78 0 105 1 65 0 236 0 255 0 8 0 40 0 70 6 336 0 415 -41 555 -15 49 -84
181 -118 225 -39 51 -163 170 -177 170 -7 0 -13 4 -13 9 0 8 -139 80 -185 96
-68 24 -183 42 -266 42 -52 0 -98 -1 -104 -3z"/>
<path d="M4047 4804 c-1 -1 -42 -5 -92 -8 -49 -3 -117 -13 -150 -22 -33 -9
-64 -17 -70 -18 -13 -2 -134 -61 -160 -78 -67 -43 -205 -168 -205 -187 0 -3
-10 -17 -23 -31 -12 -14 -28 -36 -35 -50 -6 -14 -16 -32 -21 -40 -42 -68 -90
-243 -92 -335 -1 -43 12 -169 21 -210 17 -70 16 -67 28 -98 7 -15 15 -39 18
-52 3 -14 9 -25 13 -25 3 0 13 -15 20 -32 19 -43 86 -134 131 -178 54 -53 126
-110 138 -110 6 0 12 -4 14 -8 8 -21 165 -85 263 -108 28 -7 120 -13 185 -13
30 0 64 0 75 -1 11 0 40 0 65 1 25 1 52 1 60 0 36 -3 115 1 122 5 4 3 8 2 8
-3 0 -4 79 -8 175 -8 96 0 175 2 175 5 0 6 210 3 216 -2 2 -3 26 -2 54 2 27 4
50 2 50 -2 0 -5 4 -7 8 -4 5 3 44 5 88 5 43 0 95 1 114 2 19 1 42 1 50 1 174
-8 485 4 485 18 0 1 9 3 20 5 38 5 133 43 191 76 94 51 165 111 231 194 58 72
66 84 100 155 41 87 58 137 69 204 9 60 12 75 19 86 3 6 3 10 -2 10 -4 0 -8
37 -8 83 0 45 -5 104 -12 132 -22 84 -55 185 -62 185 -3 0 -13 15 -20 33 -38
85 -161 219 -264 287 -60 39 -196 98 -247 106 -14 3 -32 7 -40 10 -14 6 -168
15 -240 14 -38 -1 -49 -1 -125 -1 -59 0 -59 0 -110 0 -22 0 -49 0 -60 0 -101
0 -127 0 -180 0 -22 0 -49 0 -60 0 -101 0 -127 0 -180 0 -47 1 -62 0 -135 0
-30 0 -66 0 -80 1 -91 4 -330 4 -330 0 0 -3 -45 -3 -101 0 -55 3 -101 4 -102
4z"/>
<path d="M4047 1604 c-1 -1 -42 -5 -92 -8 -49 -3 -117 -13 -150 -22 -33 -9
-64 -17 -70 -18 -13 -2 -134 -61 -160 -78 -67 -43 -205 -168 -205 -187 0 -3
-10 -17 -23 -31 -12 -14 -28 -36 -35 -50 -6 -14 -16 -32 -21 -40 -37 -60 -73
-177 -85 -280 -3 -19 -5 -37 -7 -40 -1 -3 -1 -8 0 -12 0 -4 3 -43 5 -85 4 -65
11 -112 30 -188 2 -5 8 -23 14 -38 7 -15 15 -39 18 -52 3 -14 9 -25 13 -25 3
0 13 -15 20 -32 21 -47 81 -127 139 -184 53 -51 55 -53 112 -95 58 -42 202
-107 260 -116 8 -1 33 -6 55 -10 52 -10 2627 -10 2680 0 44 8 99 24 130 37 11
4 35 14 54 21 55 21 172 101 231 160 80 79 180 231 180 274 0 8 5 15 12 15 6
0 9 2 6 6 -3 3 1 26 9 52 8 26 17 61 21 77 8 38 8 239 0 285 -15 91 -102 297
-130 308 -4 2 -8 9 -8 14 0 12 -4 17 -81 96 -69 71 -143 124 -220 160 -65 30
-96 43 -114 48 -69 18 -158 31 -235 33 -201 6 -230 6 -230 0 0 -3 -12 -4 -27
-2 -50 6 -293 8 -293 2 0 -3 -12 -4 -27 -2 -50 6 -293 8 -293 2 0 -3 -12 -4
-27 -2 -50 6 -293 8 -293 2 0 -3 -12 -4 -27 -2 -50 6 -293 8 -293 2 0 -3 -12
-4 -27 -2 -50 6 -293 8 -293 2 0 -3 -12 -4 -27 -2 -46 6 -293 8 -293 3 0 -3
-45 -3 -101 0 -55 3 -101 4 -102 4z"/>
</g>
</svg>
